<svg xmlns="http://www.w3.org/2000/svg" xmlns:xlink="http://www.w3.org/1999/xlink" width="1920" zoomAndPan="magnify" viewBox="0 0 1440 809.999993" height="1080" preserveAspectRatio="xMidYMid meet" version="1.0"><defs><clipPath id="46bacdc0ce"><path d="M 0 551 L 296 551 L 296 810 L 0 810 Z M 0 551 " clip-rule="nonzero"/></clipPath><clipPath id="e7666ddc6a"><path d="M -159.648438 614.117188 L 178.308594 483.695312 L 346.535156 919.609375 L 8.578125 1050.03125 Z M -159.648438 614.117188 " clip-rule="nonzero"/></clipPath><clipPath id="a5bce7ccf6"><path d="M -159.648438 614.117188 L 178.308594 483.695312 L 346.535156 919.609375 L 8.578125 1050.03125 Z M -159.648438 614.117188 " clip-rule="nonzero"/></clipPath><clipPath id="e381476e65"><path d="M 0 3 L 366 3 L 366 247 L 0 247 Z M 0 3 " clip-rule="nonzero"/></clipPath><clipPath id="66eb8bf243"><path d="M -29.09375 248.972656 L -40.5625 16.757812 L 360.199219 -3.035156 L 371.667969 229.183594 Z M -29.09375 248.972656 " clip-rule="nonzero"/></clipPath><clipPath id="4101aa9df8"><path d="M -29.09375 248.972656 L -40.5625 16.757812 L 360.199219 -3.035156 L 371.667969 229.183594 Z M -29.09375 248.972656 " clip-rule="nonzero"/></clipPath><clipPath id="25e57b5918"><path d="M 1097 618 L 1440 618 L 1440 810 L 1097 810 Z M 1097 618 " clip-rule="nonzero"/></clipPath><clipPath id="f94bc29fef"><path d="M 1095.644531 721.332031 L 1220.277344 480.976562 L 1635.078125 696.0625 L 1510.445312 936.421875 Z M 1095.644531 721.332031 " clip-rule="nonzero"/></clipPath><clipPath id="cd3f6f629f"><path d="M 1095.644531 721.332031 L 1220.277344 480.976562 L 1635.078125 696.0625 L 1510.445312 936.421875 Z M 1095.644531 721.332031 " clip-rule="nonzero"/></clipPath></defs><rect x="-144" width="1728" fill="#ffffff" y="-80.999999" height="971.999992" fill-opacity="1"/><rect x="-144" width="1728" fill="#e2dfdc" y="-80.999999" height="971.999992" fill-opacity="1"/><path fill="#98918b" d="M 1404.960938 95.28125 C 1397.703125 93.925781 1390.785156 94.378906 1384.964844 96.589844 C 1378.214844 99.15625 1372.792969 104.304688 1370.457031 110.367188 C 1367.035156 119.257812 1369.859375 128.894531 1372.34375 137.402344 C 1372.835938 139.09375 1373.300781 140.691406 1373.730469 142.28125 C 1374.148438 143.855469 1374.5625 145.4375 1374.972656 147.019531 C 1376.214844 151.773438 1377.503906 156.691406 1378.96875 161.476562 C 1380.925781 167.84375 1384.300781 175.589844 1393.113281 178.988281 C 1396.566406 180.320312 1400.558594 180.972656 1405.246094 180.972656 C 1406.117188 180.972656 1407.011719 180.953125 1407.933594 180.90625 C 1422.257812 180.203125 1434.054688 174.429688 1440.300781 165.054688 C 1441.242188 163.644531 1442.078125 162.109375 1442.789062 160.5 C 1444.851562 155.835938 1445.929688 150.285156 1445.914062 144.453125 C 1445.882812 132.96875 1441.644531 121.316406 1434.289062 112.488281 C 1426.945312 103.660156 1416.253906 97.394531 1404.960938 95.28125 Z M 1440.835938 159.636719 C 1440.171875 161.136719 1439.394531 162.5625 1438.519531 163.871094 C 1432.746094 172.542969 1421.273438 178.109375 1407.835938 178.765625 C 1402.261719 179.046875 1397.703125 178.460938 1393.886719 176.988281 C 1387.683594 174.59375 1383.714844 169.617188 1381.023438 160.84375 C 1379.566406 156.101562 1378.285156 151.207031 1377.046875 146.472656 C 1376.632812 144.890625 1376.222656 143.304688 1375.800781 141.730469 C 1375.363281 140.113281 1374.878906 138.425781 1374.402344 136.796875 C 1371.894531 128.222656 1369.300781 119.351562 1372.460938 111.132812 C 1374.578125 105.632812 1379.539062 100.9375 1385.730469 98.585938 C 1389.117188 97.300781 1392.914062 96.652344 1396.949219 96.652344 C 1399.410156 96.652344 1401.964844 96.894531 1404.574219 97.382812 C 1415.386719 99.402344 1425.621094 105.40625 1432.660156 113.855469 C 1439.699219 122.300781 1443.753906 133.453125 1443.785156 144.453125 C 1443.792969 149.992188 1442.773438 155.242188 1440.835938 159.636719 Z M 1433.3125 95.679688 C 1430.539062 93.101562 1427.507812 90.730469 1424.570312 88.4375 C 1423.84375 87.867188 1423.113281 87.296875 1422.386719 86.722656 C 1421.464844 85.992188 1420.554688 85.261719 1419.644531 84.519531 C 1416.789062 82.21875 1413.84375 79.832031 1410.691406 77.789062 C 1402.261719 72.3125 1391.386719 68.601562 1380.074219 67.335938 C 1375.878906 66.859375 1371.683594 66.753906 1367.613281 67.015625 C 1359.632812 67.527344 1352.605469 69.546875 1346.722656 73.019531 C 1338.933594 77.617188 1332.488281 85.09375 1328.574219 94.078125 C 1322.878906 107.175781 1323.09375 120.816406 1323.296875 134.011719 C 1323.3125 135.132812 1323.328125 136.25 1323.34375 137.363281 C 1323.507812 150.621094 1325.601562 162.175781 1329.570312 171.710938 C 1329.882812 172.460938 1330.230469 173.25 1330.65625 174.1875 C 1335.875 185.628906 1343.710938 194.011719 1353.328125 198.433594 C 1355.449219 199.394531 1357.71875 200.210938 1360.066406 200.84375 C 1364.722656 202.085938 1369.851562 202.707031 1375.585938 202.707031 C 1379.039062 202.707031 1382.710938 202.480469 1386.625 202.03125 C 1402.707031 200.210938 1418.648438 194.980469 1432.734375 186.902344 C 1437.476562 184.175781 1441.484375 181.304688 1444.988281 178.128906 C 1448.601562 174.851562 1450.96875 171.871094 1452.449219 168.75 C 1452.539062 168.558594 1452.628906 168.363281 1452.714844 168.167969 C 1457.921875 156.261719 1456.734375 141.488281 1453.878906 131.632812 C 1449.390625 116.113281 1442.660156 104.355469 1433.3125 95.679688 Z M 1450.75 167.316406 C 1450.675781 167.492188 1450.59375 167.664062 1450.515625 167.839844 C 1449.160156 170.699219 1446.945312 173.46875 1443.550781 176.550781 C 1440.160156 179.625 1436.277344 182.40625 1431.675781 185.050781 C 1417.839844 192.984375 1402.179688 198.121094 1386.390625 199.910156 C 1376.242188 201.074219 1367.8125 200.703125 1360.625 198.78125 C 1358.390625 198.179688 1356.230469 197.410156 1354.222656 196.488281 C 1345.082031 192.289062 1337.609375 184.269531 1332.613281 173.296875 C 1332.195312 172.382812 1331.859375 171.617188 1331.558594 170.886719 C 1327.695312 161.605469 1325.65625 150.316406 1325.492188 137.339844 C 1325.476562 136.21875 1325.460938 135.097656 1325.445312 133.980469 C 1325.246094 121.011719 1325.039062 107.601562 1330.546875 94.933594 C 1334.277344 86.363281 1340.414062 79.238281 1347.816406 74.867188 C 1353.40625 71.566406 1360.113281 69.644531 1367.757812 69.152344 C 1371.699219 68.894531 1375.765625 69.003906 1379.835938 69.460938 C 1390.824219 70.695312 1401.371094 74.285156 1409.523438 79.582031 C 1412.582031 81.570312 1415.488281 83.914062 1418.300781 86.1875 C 1419.214844 86.925781 1420.136719 87.671875 1421.058594 88.398438 C 1421.785156 88.976562 1422.519531 89.550781 1423.25 90.125 C 1426.148438 92.390625 1429.148438 94.734375 1431.851562 97.253906 C 1440.910156 105.660156 1447.441406 117.101562 1451.816406 132.238281 C 1454.5625 141.730469 1455.726562 155.929688 1450.75 167.316406 Z M 1434.457031 78.921875 C 1431.214844 76.277344 1427.78125 73.765625 1424.460938 71.335938 C 1422.402344 69.832031 1420.269531 68.273438 1418.207031 66.699219 C 1416.160156 65.132812 1414.125 63.472656 1412.160156 61.863281 C 1408.757812 59.074219 1405.238281 56.199219 1401.496094 53.707031 C 1389.664062 45.851562 1373.96875 40.761719 1357.3125 39.390625 C 1351.394531 38.898438 1345.46875 38.933594 1339.699219 39.503906 C 1328.132812 40.644531 1318.359375 43.980469 1310.648438 49.414062 C 1301.941406 55.550781 1294.785156 64.835938 1288.761719 77.804688 C 1281.449219 93.574219 1277.234375 110.472656 1275.074219 132.59375 C 1273.277344 151.082031 1275.890625 168.601562 1282.632812 183.246094 C 1283.160156 184.386719 1283.734375 185.558594 1284.386719 186.824219 C 1292.347656 202.230469 1304.703125 213.898438 1319.1875 219.664062 C 1322.296875 220.898438 1325.605469 221.910156 1329.023438 222.683594 C 1334.820312 223.976562 1341.109375 224.625 1348.003906 224.625 C 1353.976562 224.625 1360.398438 224.140625 1367.347656 223.167969 C 1388.5625 220.222656 1410.769531 213.128906 1433.347656 202.089844 C 1438.6875 199.472656 1445.613281 195.855469 1451.847656 191.070312 C 1457.773438 186.527344 1461.8125 181.921875 1464.191406 176.988281 C 1464.335938 176.6875 1464.472656 176.390625 1464.609375 176.082031 C 1471.753906 159.792969 1471.476562 136.855469 1463.917969 119.003906 C 1457.039062 102.738281 1447.125 89.25 1434.457031 78.921875 Z M 1462.652344 175.222656 C 1462.53125 175.5 1462.402344 175.777344 1462.265625 176.058594 C 1460.039062 180.679688 1456.203125 185.035156 1450.550781 189.367188 C 1444.46875 194.035156 1437.660156 197.585938 1432.410156 200.160156 C 1410.035156 211.105469 1388.050781 218.132812 1367.050781 221.046875 C 1352.335938 223.105469 1340.054688 222.953125 1329.496094 220.59375 C 1326.183594 219.847656 1322.988281 218.867188 1319.980469 217.679688 C 1305.984375 212.097656 1294.015625 200.792969 1286.292969 185.84375 C 1285.65625 184.605469 1285.09375 183.464844 1284.585938 182.351562 C 1278 168.046875 1275.449219 150.917969 1277.214844 132.800781 C 1279.34375 110.933594 1283.507812 94.25 1290.707031 78.707031 C 1296.5625 66.09375 1303.488281 57.089844 1311.882812 51.167969 C 1319.285156 45.953125 1328.714844 42.742188 1339.910156 41.640625 C 1345.542969 41.082031 1351.339844 41.046875 1357.128906 41.527344 C 1373.4375 42.871094 1388.765625 47.832031 1400.304688 55.496094 C 1403.960938 57.925781 1407.4375 60.769531 1410.792969 63.523438 C 1412.777344 65.144531 1414.824219 66.820312 1416.902344 68.40625 C 1418.980469 69.992188 1421.117188 71.558594 1423.183594 73.074219 C 1426.484375 75.488281 1429.890625 77.984375 1433.089844 80.589844 C 1445.484375 90.695312 1455.191406 103.902344 1461.941406 119.84375 C 1469.296875 137.183594 1469.578125 159.441406 1462.652344 175.222656 Z M 1435.828125 62.1875 C 1432.253906 59.503906 1428.535156 56.890625 1424.9375 54.363281 C 1421.40625 51.882812 1417.757812 49.316406 1414.25 46.6875 C 1411.246094 44.4375 1408.292969 41.992188 1405.4375 39.632812 C 1401.3125 36.21875 1397.050781 32.6875 1392.511719 29.636719 C 1377.25 19.378906 1356.75 12.921875 1334.777344 11.453125 C 1327.132812 10.941406 1319.472656 11.121094 1312.015625 11.996094 C 1296.808594 13.78125 1284.296875 18.425781 1274.824219 25.792969 C 1262.984375 35.003906 1255.496094 48.417969 1249.160156 61.539062 C 1237.398438 85.933594 1230.367188 107.011719 1227.03125 127.871094 C 1223.269531 151.398438 1226.421875 175.152344 1235.90625 194.761719 C 1236.667969 196.332031 1237.484375 197.90625 1238.324219 199.433594 C 1249.03125 218.984375 1265.695312 233.710938 1285.242188 240.890625 C 1289.335938 242.382812 1293.691406 243.605469 1298.175781 244.511719 C 1305.09375 245.902344 1312.542969 246.601562 1320.628906 246.601562 C 1329.105469 246.601562 1338.273438 245.832031 1348.265625 244.300781 C 1374.550781 240.289062 1401.855469 231.691406 1434.199219 217.25 C 1442.019531 213.753906 1451.027344 209.550781 1458.957031 203.976562 C 1467.089844 198.261719 1472.875 191.949219 1476.148438 185.222656 C 1476.34375 184.820312 1476.53125 184.40625 1476.714844 183.996094 C 1481.589844 172.90625 1484 159.03125 1483.507812 144.921875 C 1483.019531 130.929688 1479.707031 117.253906 1474.179688 106.417969 C 1465.726562 89.835938 1452.824219 74.953125 1435.828125 62.1875 Z M 1474.757812 183.132812 C 1474.589844 183.519531 1474.410156 183.90625 1474.230469 184.28125 C 1471.117188 190.675781 1465.566406 196.710938 1457.734375 202.21875 C 1449.964844 207.683594 1441.417969 211.671875 1433.332031 215.289062 C 1401.167969 229.652344 1374.035156 238.199219 1347.949219 242.179688 C 1328.675781 245.132812 1312.535156 245.207031 1298.609375 242.40625 C 1294.226562 241.519531 1289.984375 240.332031 1285.992188 238.871094 C 1266.933594 231.867188 1250.675781 217.496094 1240.214844 198.394531 C 1239.382812 196.894531 1238.589844 195.351562 1237.847656 193.820312 C 1228.546875 174.601562 1225.460938 151.296875 1229.15625 128.203125 C 1232.464844 107.558594 1239.433594 86.667969 1251.105469 62.46875 C 1257.324219 49.578125 1264.664062 36.421875 1276.152344 27.480469 C 1285.3125 20.359375 1297.46875 15.863281 1312.277344 14.121094 C 1316.894531 13.582031 1321.59375 13.308594 1326.320312 13.308594 C 1329.089844 13.308594 1331.867188 13.398438 1334.644531 13.585938 C 1356.242188 15.027344 1376.371094 21.359375 1391.324219 31.410156 C 1395.773438 34.398438 1399.996094 37.894531 1404.078125 41.277344 C 1406.953125 43.652344 1409.925781 46.113281 1412.96875 48.394531 C 1416.503906 51.042969 1420.164062 53.617188 1423.703125 56.109375 C 1427.289062 58.625 1430.988281 61.234375 1434.539062 63.898438 C 1451.273438 76.464844 1463.972656 91.09375 1472.285156 107.382812 C 1483.414062 129.21875 1484.460938 161.074219 1474.757812 183.132812 Z M 1437.226562 45.460938 C 1433.65625 42.929688 1429.992188 40.425781 1426.445312 37.996094 C 1421.113281 34.347656 1415.59375 30.578125 1410.316406 26.667969 C 1406.398438 23.765625 1402.578125 20.578125 1398.875 17.492188 C 1393.984375 13.414062 1388.929688 9.195312 1383.542969 5.550781 C 1365.117188 -6.925781 1339.144531 -14.960938 1312.273438 -16.492188 C 1302.90625 -17.027344 1293.515625 -16.699219 1284.363281 -15.515625 C 1265.492188 -13.078125 1250.242188 -7.128906 1239.035156 2.160156 C 1225.300781 13.550781 1216.949219 30.40625 1209.578125 45.277344 L 1209.167969 46.109375 C 1197.019531 70.640625 1184.449219 96.011719 1179.003906 123.167969 C 1173.222656 151.957031 1176.84375 181.46875 1189.195312 206.261719 C 1190.160156 208.203125 1191.199219 210.140625 1192.277344 212.03125 C 1205.605469 235.429688 1227.117188 253.679688 1251.308594 262.101562 C 1256.390625 263.871094 1261.78125 265.292969 1267.339844 266.332031 C 1275.382812 267.839844 1283.984375 268.59375 1293.265625 268.59375 C 1304.238281 268.59375 1316.152344 267.542969 1329.199219 265.433594 C 1368.375 259.117188 1404.710938 245.191406 1435.082031 232.402344 C 1444.417969 228.472656 1456.042969 223.570312 1466.101562 216.871094 C 1476.511719 209.933594 1483.917969 202.054688 1488.125 193.449219 C 1488.371094 192.941406 1488.613281 192.425781 1488.84375 191.90625 C 1501.875 162.289062 1500.039062 121.046875 1484.472656 93.851562 C 1474.691406 76.742188 1459.667969 61.363281 1437.226562 45.460938 Z M 1486.890625 191.042969 C 1486.679688 191.539062 1486.449219 192.023438 1486.210938 192.507812 C 1482.171875 200.765625 1475.011719 208.359375 1464.925781 215.082031 C 1455.035156 221.667969 1443.519531 226.523438 1434.261719 230.421875 C 1404.003906 243.160156 1367.824219 257.027344 1328.867188 263.3125 C 1305.03125 267.164062 1285.035156 267.464844 1267.742188 264.222656 C 1262.289062 263.199219 1257.003906 261.800781 1252.019531 260.070312 C 1228.3125 251.816406 1207.21875 233.914062 1194.144531 210.960938 C 1193.085938 209.109375 1192.066406 207.199219 1191.121094 205.300781 C 1178.976562 180.929688 1175.417969 151.910156 1181.109375 123.585938 C 1186.503906 96.703125 1199.003906 71.460938 1211.089844 47.050781 L 1211.503906 46.21875 C 1218.777344 31.539062 1227.019531 14.898438 1240.402344 3.804688 C 1251.292969 -5.222656 1266.171875 -11.011719 1284.636719 -13.394531 C 1293.660156 -14.558594 1302.914062 -14.882812 1312.148438 -14.355469 C 1338.644531 -12.84375 1364.226562 -4.941406 1382.34375 7.324219 C 1387.636719 10.910156 1392.652344 15.09375 1397.503906 19.136719 C 1401.226562 22.238281 1405.074219 25.445312 1409.042969 28.386719 C 1414.351562 32.320312 1419.886719 36.105469 1425.234375 39.765625 C 1428.777344 42.1875 1432.4375 44.6875 1435.988281 47.207031 C 1458.167969 62.921875 1472.984375 78.082031 1482.621094 94.914062 C 1497.875 121.574219 1499.667969 162 1486.890625 191.042969 Z M 1511.269531 139.726562 C 1510.289062 117.628906 1504.4375 96.882812 1494.78125 81.300781 C 1480.5 58.246094 1458.3125 42.078125 1438.632812 28.734375 C 1435.585938 26.667969 1432.480469 24.589844 1429.46875 22.582031 C 1421.820312 17.46875 1413.914062 12.183594 1406.378906 6.65625 C 1401.566406 3.113281 1396.886719 -0.800781 1392.367188 -4.59375 C 1386.695312 -9.355469 1380.824219 -14.273438 1374.578125 -18.527344 C 1352.765625 -33.371094 1321.851562 -42.8125 1289.769531 -44.433594 C 1278.675781 -44.988281 1267.554688 -44.519531 1256.714844 -43.027344 C 1234.167969 -39.933594 1216.179688 -32.683594 1203.253906 -21.480469 C 1189.175781 -9.277344 1180.617188 7.816406 1172.339844 24.355469 C 1171.558594 25.914062 1170.78125 27.472656 1170 29.019531 C 1167.25 34.460938 1164.375 39.972656 1161.589844 45.308594 C 1149.460938 68.546875 1136.921875 92.578125 1130.980469 118.484375 C 1127.160156 135.125 1126.195312 152.183594 1128.109375 169.171875 C 1130.058594 186.464844 1134.894531 202.808594 1142.492188 217.765625 C 1143.664062 220.066406 1144.921875 222.375 1146.234375 224.625 C 1162.332031 252.160156 1188.265625 273.550781 1217.378906 283.316406 C 1231.949219 288.199219 1247.832031 290.632812 1265.839844 290.632812 C 1279.308594 290.632812 1293.964844 289.269531 1310.140625 286.566406 C 1351.558594 279.640625 1390.40625 265.964844 1435.980469 247.554688 L 1436.496094 247.34375 C 1448.929688 242.320312 1461.785156 237.128906 1473.265625 229.753906 C 1486.527344 221.230469 1496.113281 210.875 1500.980469 199.8125 C 1508.578125 182.582031 1512.230469 161.246094 1511.269531 139.726562 Z M 1499.023438 198.957031 C 1493.089844 212.445312 1481.113281 222.167969 1472.113281 227.953125 C 1460.804688 235.214844 1448.046875 240.375 1435.703125 245.355469 L 1435.1875 245.566406 C 1389.742188 263.921875 1351.023438 277.5625 1309.796875 284.457031 C 1272.339844 290.71875 1243.191406 289.710938 1218.070312 281.285156 C 1189.441406 271.679688 1163.933594 250.636719 1148.09375 223.542969 C 1146.796875 221.332031 1145.5625 219.0625 1144.410156 216.789062 C 1129.617188 187.679688 1125.488281 152.019531 1133.074219 118.960938 C 1138.957031 93.320312 1151.433594 69.414062 1163.496094 46.300781 C 1166.28125 40.960938 1169.164062 35.4375 1171.914062 29.984375 C 1172.699219 28.429688 1173.480469 26.871094 1174.261719 25.3125 C 1182.441406 8.96875 1190.90625 -7.929688 1204.660156 -19.855469 C 1217.265625 -30.78125 1234.878906 -37.863281 1257.007812 -40.902344 C 1267.714844 -42.375 1278.703125 -42.839844 1289.664062 -42.289062 C 1321.363281 -40.691406 1351.875 -31.382812 1373.371094 -16.753906 C 1379.53125 -12.566406 1385.355469 -7.675781 1390.992188 -2.949219 C 1395.539062 0.863281 1400.238281 4.808594 1405.109375 8.386719 C 1412.679688 13.945312 1420.609375 19.242188 1428.273438 24.363281 C 1431.277344 26.375 1434.386719 28.445312 1437.421875 30.507812 C 1456.917969 43.730469 1478.890625 59.734375 1492.949219 82.429688 C 1512.078125 113.292969 1514.683594 163.382812 1499.023438 198.957031 Z M 1499.023438 198.957031 " fill-opacity="1" fill-rule="nonzero"/><g clip-path="url(#46bacdc0ce)"><g clip-path="url(#e7666ddc6a)"><g clip-path="url(#a5bce7ccf6)"><path fill="#98918b" d="M 263.84375 707.8125 C 260.867188 700.601562 258.082031 693.136719 255.386719 685.921875 C 248.632812 667.835938 241.652344 649.128906 231.007812 632.472656 C 214.757812 607.046875 193.136719 586.398438 170.117188 574.324219 C 149.988281 563.773438 127.109375 557.457031 102.109375 555.578125 C 97.882812 555.257812 93.726562 555.0625 89.628906 554.960938 C 83.4375 553.882812 77.097656 553.085938 70.613281 552.597656 C 19.855469 548.769531 -21.6875 560.875 -52.847656 588.574219 C -75.691406 608.875 -92.390625 634.289062 -101.15625 662.082031 C -109.929688 689.890625 -110.792969 720.238281 -103.667969 749.832031 C -97.804688 774.191406 -87.738281 797.511719 -78.007812 820.058594 C -75.496094 825.878906 -72.898438 831.894531 -70.421875 837.824219 C -67.808594 844.0625 -65.238281 850.445312 -62.75 856.621094 C -55.351562 874.960938 -47.707031 893.921875 -38.164062 911.628906 C -23.457031 938.921875 -5.894531 959.390625 14.035156 972.476562 C 27.144531 981.082031 42.105469 987.085938 58.492188 990.332031 C 68.339844 992.277344 78.398438 993.171875 88.554688 993.007812 C 89.035156 993.109375 89.511719 993.210938 89.992188 993.308594 C 105.65625 996.402344 121.859375 996.839844 138.132812 994.597656 C 150.789062 992.855469 163.566406 989.492188 176.222656 984.605469 C 193.191406 978.058594 209.925781 968.78125 225.816406 957.050781 C 256.449219 934.433594 277.878906 906.980469 287.789062 877.675781 C 296.898438 850.742188 297.523438 819.296875 289.640625 784.207031 C 283.636719 757.46875 273.691406 731.691406 263.84375 707.8125 Z M 230.410156 705.632812 C 240.21875 729.425781 250.125 755.105469 256.09375 781.683594 C 263.886719 816.390625 263.28125 847.457031 254.300781 874.023438 C 244.527344 902.921875 223.355469 930.019531 193.070312 952.382812 C 165.605469 972.664062 135.613281 985.511719 106.339844 989.539062 C 100.507812 990.339844 94.667969 990.777344 88.855469 990.875 C 73.5 987.640625 59.09375 981.847656 46.679688 973.695312 C 27.042969 960.808594 9.714844 940.589844 -4.824219 913.609375 C -14.3125 896 -21.941406 877.097656 -29.3125 858.8125 C -31.804688 852.628906 -34.382812 846.242188 -36.992188 839.988281 C -39.476562 834.046875 -42.074219 828.023438 -44.589844 822.199219 C -54.28125 799.730469 -64.308594 776.5 -70.136719 752.3125 C -84.375 693.207031 -65.613281 633.6875 -19.960938 593.113281 C -7.6875 582.195312 6.238281 573.742188 21.730469 567.761719 C 41.714844 560.050781 64.320312 556.464844 89.375 557.042969 C 106.789062 560.101562 122.96875 565.503906 137.648438 573.199219 C 160.34375 585.105469 181.683594 605.496094 197.742188 630.621094 C 208.269531 647.085938 215.210938 665.683594 221.925781 683.667969 C 224.625 690.90625 227.417969 698.390625 230.410156 705.632812 Z M 15.179688 970.726562 C -4.453125 957.835938 -21.785156 937.617188 -36.320312 910.636719 C -45.8125 893.027344 -53.4375 874.125 -60.808594 855.839844 C -63.300781 849.65625 -65.878906 843.269531 -68.488281 837.015625 C -70.972656 831.074219 -73.570312 825.050781 -76.082031 819.230469 C -85.777344 796.765625 -95.804688 773.527344 -101.628906 749.34375 C -115.867188 690.238281 -97.109375 630.71875 -51.457031 590.144531 C -39.179688 579.230469 -25.257812 570.777344 -9.761719 564.796875 C 13.511719 555.8125 40.332031 552.421875 70.457031 554.695312 C 71.980469 554.808594 73.5 554.941406 75.011719 555.089844 C 36.40625 556.742188 4.074219 568.957031 -21.347656 591.554688 C -44.191406 611.855469 -60.890625 637.273438 -69.65625 665.0625 C -78.429688 692.875 -79.292969 723.21875 -72.167969 752.816406 C -66.304688 777.175781 -56.234375 800.492188 -46.507812 823.039062 C -43.996094 828.859375 -41.398438 834.875 -38.917969 840.804688 C -36.308594 847.042969 -33.738281 853.425781 -31.25 859.605469 C -23.851562 877.941406 -16.207031 896.90625 -6.664062 914.609375 C 8.042969 941.902344 25.601562 962.375 45.535156 975.457031 C 55.714844 982.136719 67.011719 987.246094 79.222656 990.71875 C 55.769531 989.53125 33.347656 982.652344 15.179688 970.726562 Z M 287.589844 784.667969 C 295.378906 819.375 294.777344 850.445312 285.796875 877.003906 C 276.023438 905.902344 254.851562 933.003906 224.566406 955.371094 C 197.105469 975.648438 167.117188 988.496094 137.839844 992.527344 C 124.535156 994.355469 111.171875 994.320312 98.3125 992.53125 C 101.078125 992.304688 103.851562 992.003906 106.628906 991.625 C 119.285156 989.882812 132.0625 986.519531 144.722656 981.636719 C 161.683594 975.089844 178.425781 965.8125 194.316406 954.082031 C 224.945312 931.460938 246.378906 904.011719 256.289062 874.703125 C 265.394531 847.773438 266.019531 816.320312 258.140625 781.238281 C 252.140625 754.5 242.195312 728.71875 232.347656 704.847656 C 229.371094 697.628906 226.589844 690.171875 223.894531 682.953125 C 217.140625 664.867188 210.15625 646.160156 199.511719 629.507812 C 183.265625 604.085938 161.640625 583.4375 138.625 571.363281 C 127.453125 565.503906 115.425781 560.953125 102.664062 557.746094 C 127.097656 559.675781 149.464844 565.878906 169.148438 576.199219 C 191.847656 588.101562 213.1875 608.496094 229.246094 633.617188 C 239.769531 650.085938 246.710938 668.683594 253.429688 686.671875 C 256.128906 693.902344 258.921875 701.382812 261.910156 708.628906 C 271.71875 732.402344 281.625 758.082031 287.589844 784.667969 Z M 206.027344 673.746094 C 198.671875 663.457031 190.886719 655.976562 182.222656 650.882812 C 181.929688 650.707031 181.636719 650.539062 181.335938 650.375 C 175.601562 647.125 168.9375 645.292969 160.367188 644.617188 C 158.011719 644.429688 155.21875 644.238281 152.109375 644.105469 C 149.777344 643.660156 147.292969 643.339844 144.621094 643.128906 C 138.078125 642.605469 128.152344 642.027344 117.527344 642.957031 C 107.925781 643.800781 98.792969 645.242188 90.394531 647.242188 C 70.449219 651.996094 53.140625 659.828125 37.476562 671.1875 C 35.605469 672.542969 33.929688 673.816406 32.335938 675.082031 C 0.078125 700.796875 -20.851562 736.863281 -25.074219 774.035156 C -26.613281 787.585938 -26.355469 801.285156 -24.242188 818.445312 C -23.578125 823.835938 -22.808594 827.945312 -21.746094 831.769531 L -20.914062 834.777344 C -17.492188 847.121094 -13.953125 859.890625 -9.71875 872.101562 C -8.867188 874.558594 -8.0625 876.746094 -7.261719 878.773438 C -2.578125 890.507812 5.921875 907.003906 25.558594 914.730469 C 33.734375 917.941406 43.578125 919.664062 54.546875 919.882812 C 68.886719 922.460938 86.300781 921.753906 105.019531 917.730469 C 108.089844 917.066406 111.375 916.339844 114.664062 915.457031 C 120.90625 913.804688 127.222656 911.734375 133.574219 909.285156 C 150.339844 902.8125 167.324219 893.65625 183.535156 882.292969 C 208.421875 864.777344 225.289062 846.722656 233.667969 828.632812 C 242.238281 810.140625 241.226562 789.890625 239.714844 776.261719 C 237.984375 760.617188 233.855469 746.039062 229.773438 732.445312 C 228.679688 728.816406 227.648438 725.09375 226.648438 721.492188 C 223.40625 709.835938 220.058594 697.789062 214.289062 687.054688 C 211.792969 682.394531 209.011719 677.921875 206.027344 673.746094 Z M 151.855469 646.191406 C 156.714844 647.128906 160.851562 648.605469 164.5625 650.710938 C 164.5625 650.710938 164.5625 650.710938 164.5625 650.714844 C 164.851562 650.878906 165.140625 651.039062 165.417969 651.207031 C 173.816406 656.148438 181.390625 663.433594 188.574219 673.484375 C 191.503906 677.578125 194.238281 681.980469 196.703125 686.566406 C 202.363281 697.097656 205.683594 709.03125 208.890625 720.578125 C 209.894531 724.1875 210.929688 727.917969 212.023438 731.570312 C 216.082031 745.066406 220.179688 759.539062 221.890625 775.011719 C 223.371094 788.386719 224.371094 808.253906 216.027344 826.265625 C 207.796875 844.019531 191.164062 861.792969 166.589844 879.089844 C 144.4375 894.621094 120.851562 905.976562 98.382812 911.945312 C 95.140625 912.8125 91.878906 913.535156 88.84375 914.191406 C 76.753906 916.792969 65.242188 917.988281 54.78125 917.796875 C 50.199219 916.960938 45.945312 915.789062 42.074219 914.269531 C 23.195312 906.84375 14.976562 890.863281 10.441406 879.492188 C 9.660156 877.507812 8.867188 875.351562 8.015625 872.902344 C 3.804688 860.75 0.269531 848.007812 -3.144531 835.683594 L -3.972656 832.691406 C -5.003906 828.96875 -5.753906 824.953125 -6.40625 819.667969 C -8.5 802.679688 -8.757812 789.132812 -7.230469 775.75 C -3.066406 739.128906 17.574219 703.574219 49.398438 678.203125 C 50.96875 676.953125 52.625 675.699219 54.460938 674.367188 C 64.367188 667.1875 74.945312 661.429688 86.449219 656.992188 C 92.875 654.511719 99.585938 652.445312 106.632812 650.761719 C 114.929688 648.789062 123.960938 647.363281 133.460938 646.527344 C 140.082031 645.953125 146.4375 645.972656 151.855469 646.191406 Z M 26.328125 912.773438 C 7.445312 905.347656 -0.773438 889.367188 -5.308594 877.996094 C -6.097656 875.996094 -6.890625 873.839844 -7.734375 871.40625 C -11.941406 859.257812 -15.476562 846.523438 -18.890625 834.210938 L -19.722656 831.203125 C -20.753906 827.480469 -21.507812 823.464844 -22.15625 818.179688 C -24.25 801.191406 -24.503906 787.644531 -22.984375 774.261719 C -18.820312 737.640625 1.824219 702.085938 33.648438 676.714844 C 35.214844 675.472656 36.871094 674.214844 38.710938 672.878906 C 48.617188 665.699219 59.195312 659.945312 70.699219 655.503906 C 77.121094 653.027344 83.832031 650.957031 90.878906 649.273438 C 99.179688 647.300781 108.207031 645.875 117.707031 645.042969 C 122.667969 644.605469 127.472656 644.511719 131.851562 644.582031 C 122.773438 645.4375 114.125 646.828125 106.136719 648.726562 C 86.195312 653.480469 68.886719 661.3125 53.222656 672.671875 C 51.355469 674.019531 49.679688 675.296875 48.082031 676.566406 C 15.824219 702.28125 -5.105469 738.347656 -9.328125 775.519531 C -10.871094 789.074219 -10.613281 802.769531 -8.496094 819.929688 C -7.832031 825.320312 -7.0625 829.433594 -6.003906 833.253906 L -5.171875 836.246094 C -1.75 848.601562 1.789062 861.375 6.027344 873.589844 C 6.886719 876.070312 7.691406 878.25 8.484375 880.265625 C 13.164062 892 21.667969 908.496094 41.304688 916.21875 C 41.972656 916.484375 42.660156 916.734375 43.355469 916.976562 C 37.109375 916.160156 31.382812 914.761719 26.328125 912.773438 Z M 224.632812 722.058594 C 225.636719 725.667969 226.671875 729.398438 227.769531 733.054688 C 231.824219 746.550781 235.929688 761.027344 237.636719 776.496094 C 239.117188 789.871094 240.117188 809.738281 231.773438 827.75 C 223.539062 845.503906 206.90625 863.277344 182.332031 880.574219 C 160.1875 896.101562 136.597656 907.464844 114.125 913.429688 C 110.886719 914.296875 107.625 915.019531 104.582031 915.675781 C 92.253906 918.328125 80.519531 919.523438 69.898438 919.269531 C 76.140625 918.679688 82.625 917.671875 89.277344 916.238281 C 92.347656 915.578125 95.632812 914.847656 98.921875 913.96875 C 105.164062 912.3125 111.480469 910.246094 117.832031 907.792969 C 134.597656 901.324219 151.582031 892.164062 167.792969 880.800781 C 192.671875 863.289062 209.539062 845.234375 217.925781 827.140625 C 226.496094 808.648438 225.484375 788.398438 223.972656 774.769531 C 222.242188 759.121094 218.113281 744.546875 214.03125 730.957031 C 212.9375 727.324219 211.90625 723.601562 210.90625 720.003906 C 207.664062 708.34375 204.316406 696.292969 198.546875 685.558594 C 196.035156 680.894531 193.257812 676.417969 190.277344 672.25 C 182.921875 661.957031 175.132812 654.476562 166.472656 649.382812 C 166.179688 649.207031 165.886719 649.042969 165.585938 648.871094 C 164.21875 648.097656 162.796875 647.40625 161.316406 646.789062 C 169.035156 647.511719 175.089844 649.234375 180.296875 652.1875 C 180.296875 652.1875 180.296875 652.1875 180.304688 652.191406 C 180.59375 652.347656 180.875 652.515625 181.160156 652.679688 C 189.558594 657.625 197.136719 664.914062 204.316406 674.960938 C 207.246094 679.058594 209.976562 683.457031 212.445312 688.039062 C 218.113281 698.578125 221.425781 710.515625 224.632812 722.058594 Z M 120.824219 759.613281 C 112.316406 764.761719 102.359375 770.25 91.820312 776.0625 C 65.574219 790.535156 38.433594 805.5 30.152344 817.210938 C 27.75 820.613281 27.324219 823.144531 26.949219 825.375 L 24.066406 842.550781 C 23.265625 847.359375 22.765625 851.90625 25.527344 854.753906 C 27.722656 857.015625 31.613281 857.730469 37.414062 856.933594 C 43.117188 856.15625 51.074219 853.800781 60.503906 850.160156 C 67.761719 847.359375 75.898438 843.792969 84.539062 839.601562 C 102.4375 830.917969 122.050781 819.832031 141.25 807.542969 C 157.785156 796.957031 170.960938 787.375 179.359375 779.828125 C 190.640625 769.6875 194 762.636719 195.671875 757.625 C 198.460938 749.253906 197.894531 742.554688 197.148438 736.941406 C 196.628906 733.027344 195.914062 729.300781 192.949219 726.722656 C 192.855469 726.640625 192.753906 726.5625 192.652344 726.484375 C 189.964844 724.390625 185.847656 724.449219 179.308594 726.675781 C 169.71875 729.9375 156.730469 737.375 149.84375 741.515625 C 144.726562 744.59375 139.703125 747.777344 134.847656 750.855469 C 130.300781 753.746094 125.59375 756.722656 120.824219 759.613281 Z M 150.929688 743.308594 C 157.199219 739.542969 168.566406 733.011719 177.667969 729.5 C 178.460938 729.195312 179.234375 728.914062 179.988281 728.65625 C 187.503906 726.097656 190.082031 727.132812 191.367188 728.136719 C 191.441406 728.195312 191.503906 728.246094 191.574219 728.304688 C 193.992188 730.402344 194.589844 733.585938 195.074219 737.214844 C 195.789062 742.597656 196.335938 749.003906 193.683594 756.960938 C 192.097656 761.726562 188.875 768.449219 177.957031 778.265625 C 169.648438 785.738281 156.5625 795.253906 140.121094 805.773438 C 120.992188 818.019531 101.453125 829.066406 83.628906 837.71875 C 63.964844 847.257812 47.015625 853.507812 37.132812 854.863281 C 32.109375 855.546875 28.707031 855.027344 27.035156 853.300781 C 24.953125 851.160156 25.425781 847.160156 26.136719 842.90625 L 29.019531 825.726562 C 29.390625 823.523438 29.738281 821.4375 31.863281 818.429688 C 39.867188 807.109375 66.792969 792.261719 92.832031 777.902344 C 103.390625 772.078125 113.359375 766.578125 121.90625 761.410156 C 126.695312 758.507812 131.410156 755.519531 135.972656 752.628906 C 140.820312 749.554688 145.835938 746.375 150.929688 743.308594 Z M 150.929688 743.308594 " fill-opacity="1" fill-rule="nonzero"/></g></g></g><g clip-path="url(#e381476e65)"><g clip-path="url(#66eb8bf243)"><g clip-path="url(#4101aa9df8)"><path fill="#98918b" d="M 366 116.28125 C 350.585938 121.621094 338.160156 118.074219 328.015625 105.4375 C 319.089844 94.320312 312.78125 77.371094 306.679688 60.976562 C 301.65625 47.480469 296.460938 33.523438 289.878906 23.070312 C 282.480469 11.324219 274.429688 5.511719 264.535156 4.777344 C 238.269531 2.820312 233.21875 24.914062 227.867188 48.308594 C 222.96875 69.71875 217.90625 91.859375 195.628906 95.421875 C 181.214844 97.726562 165.566406 93.316406 149 88.644531 C 135.105469 84.730469 120.738281 80.679688 106.246094 80.40625 C 56.925781 79.472656 52.015625 117.410156 46.8125 157.574219 C 44 179.296875 41.089844 201.761719 30.859375 218.5625 C 25.3125 227.675781 18.15625 234.324219 8.988281 238.890625 C -1.304688 244.015625 -13.808594 246.375 -29.238281 246.109375 L -29.210938 244.667969 C 33.941406 245.761719 39.757812 200.835938 45.382812 157.386719 C 48.039062 136.867188 50.550781 117.480469 58.761719 102.8125 C 63.203125 94.878906 68.898438 89.105469 76.167969 85.160156 C 84.273438 80.761719 94.121094 78.734375 106.273438 78.960938 C 120.949219 79.238281 135.410156 83.316406 149.390625 87.257812 C 165.800781 91.882812 181.300781 96.253906 195.398438 93.996094 C 205.066406 92.449219 211.945312 87.296875 217.046875 77.777344 C 221.578125 69.324219 224.0625 58.476562 226.460938 47.984375 C 229.078125 36.535156 231.789062 24.695312 237.183594 16.230469 C 243.300781 6.632812 252.28125 2.417969 264.644531 3.335938 C 274.886719 4.101562 283.542969 10.304688 291.097656 22.300781 C 297.761719 32.878906 302.980469 46.90625 308.03125 60.472656 C 314.09375 76.757812 320.359375 93.601562 329.140625 104.535156 C 338.992188 116.804688 350.554688 120.105469 365.53125 114.917969 Z M 366 116.28125 " fill-opacity="1" fill-rule="nonzero"/></g></g></g><g clip-path="url(#25e57b5918)"><g clip-path="url(#f94bc29fef)"><g clip-path="url(#cd3f6f629f)"><path fill="#98918b" d="M 1570.703125 819.46875 C 1552.070312 815.800781 1541.65625 804.953125 1538.859375 786.300781 C 1536.398438 769.890625 1539.992188 749.148438 1543.464844 729.085938 C 1546.324219 712.570312 1549.277344 695.492188 1548.785156 681.121094 C 1548.230469 664.976562 1543.539062 654.414062 1534.023438 647.875 C 1508.757812 630.515625 1490.726562 649.769531 1471.636719 670.15625 C 1454.164062 688.816406 1436.097656 708.113281 1411.605469 698.640625 C 1395.765625 692.511719 1382.613281 678.902344 1368.691406 664.496094 C 1357.015625 652.414062 1344.941406 639.921875 1330.527344 631.152344 C 1281.480469 601.3125 1254.308594 636.578125 1225.539062 673.917969 C 1209.980469 694.113281 1193.886719 715 1173.753906 725.898438 C 1162.832031 731.808594 1151.742188 734.300781 1139.84375 733.519531 C 1126.492188 732.640625 1112.539062 727.6875 1097.179688 718.375 L 1098.046875 716.9375 C 1160.910156 755.050781 1193.089844 713.285156 1224.210938 672.894531 C 1238.910156 653.816406 1252.792969 635.792969 1269.648438 625.859375 C 1278.765625 620.480469 1287.875 618.011719 1297.496094 618.304688 C 1308.226562 618.632812 1319.316406 622.367188 1331.402344 629.71875 C 1346 638.597656 1358.148438 651.171875 1369.898438 663.332031 C 1383.6875 677.601562 1396.714844 691.078125 1412.214844 697.074219 C 1422.839844 701.183594 1432.777344 700.03125 1443.484375 693.453125 C 1452.996094 687.605469 1461.851562 678.152344 1470.414062 669.007812 C 1479.757812 659.03125 1489.417969 648.710938 1499.808594 643.363281 C 1511.582031 637.296875 1523.085938 638.320312 1534.972656 646.492188 C 1544.828125 653.261719 1549.894531 664.570312 1550.464844 681.0625 C 1550.960938 695.605469 1547.992188 712.773438 1545.117188 729.371094 C 1541.667969 749.300781 1538.101562 769.910156 1540.519531 786.050781 C 1543.234375 804.164062 1552.929688 814.257812 1571.027344 817.820312 Z M 1570.703125 819.46875 " fill-opacity="1" fill-rule="nonzero"/></g></g></g></svg>