<svg xmlns="http://www.w3.org/2000/svg" version="1.1" xmlns:xlink="http://www.w3.org/1999/xlink" xmlns:svgjs="http://svgjs.dev/svgjs" width="1500" height="507" viewBox="0 0 1500 507"><g transform="matrix(1,0,0,1,-0.9090909090909918,-1.105767793298611)"><svg viewBox="0 0 396 134" data-background-color="#ede1d1" preserveAspectRatio="xMidYMid meet" height="507" width="1500" xmlns="http://www.w3.org/2000/svg" xmlns:xlink="http://www.w3.org/1999/xlink"><g id="tight-bounds" transform="matrix(1,0,0,1,0.2400000000000091,0.2922542096686698)"><svg viewBox="0 0 395.52 133.41549158066266" height="133.41549158066266" width="395.52"><g><svg viewBox="0 0 395.52 133.41549158066266" height="133.41549158066266" width="395.52"><g><svg viewBox="0 0 395.52 133.41549158066266" height="133.41549158066266" width="395.52"><g id="textblocktransform"><svg viewBox="0 0 395.52 133.41549158066266" height="133.41549158066266" width="395.52" id="textblock"><g><svg viewBox="0 0 395.52 133.41549158066266" height="133.41549158066266" width="395.52"><g transform="matrix(1,0,0,1,0,0)"><svg width="395.52" viewBox="3 -45 184.09 62.1" height="133.41549158066266" data-palette-color="#6a704c"><path d="M4-2.9L4-2.9Q4-3.55 4.25-5.5 4.5-7.45 4.88-10.33 5.25-13.2 5.68-16.5 6.1-19.8 6.48-23.18 6.85-26.55 7.1-29.58 7.35-32.6 7.35-34.75L7.35-34.75Q7.35-36.65 7.18-37.85 7-39.05 6.65-39.8L6.65-39.8Q9.2-39.15 10.43-38.13 11.65-37.1 12.03-35.77 12.4-34.45 12.4-32.85L12.4-32.85Q12.4-28.8 11.75-24.25 11.1-19.7 10.43-14.63 9.75-9.55 9.75-3.9L9.75-3.9Q9.75-2.85 9.83-1.8 9.9-0.75 9.95 0.25L9.95 0.25Q8.05 0.25 6.88 0 5.7-0.25 5.08-0.7 4.45-1.15 4.23-1.7 4-2.25 4-2.9ZM34.5-0.7L29.5-2.25Q29.3-2.9 29.23-3.5 29.15-4.1 29.15-4.85L29.15-4.85Q29.15-7.9 29.55-11.53 29.95-15.15 30.5-19.18 31.05-23.2 31.45-27.45 31.85-31.7 31.85-36L31.85-36Q31.85-37 31.8-38.05 31.75-39.1 31.65-40.05L31.65-40.05Q33.55-40.05 34.73-39.8 35.9-39.55 36.5-39.13 37.1-38.7 37.33-38.15 37.55-37.6 37.55-37L37.55-37Q37.55-36.35 37.3-34.33 37.05-32.3 36.68-29.38 36.3-26.45 35.9-23.05 35.5-19.65 35.13-16.23 34.75-12.8 34.5-9.75 34.25-6.7 34.25-4.5L34.25-4.5Q34.25-3.5 34.3-2.53 34.35-1.55 34.5-0.7L34.5-0.7ZM25.3-1.9L25.3-1.9Q24.7-2.85 23.53-5.13 22.35-7.4 20.83-10.53 19.3-13.65 17.55-17.15 15.8-20.65 14-24.08 12.2-27.5 10.53-30.4 8.85-33.3 7.4-35.15L7.4-35.15Q6.25-36.7 4.98-37.43 3.7-38.15 3-38.65L3-38.65Q4.3-39.45 5.48-39.78 6.65-40.1 7.6-40.1L7.6-40.1Q9.5-40.1 11.2-39.48 12.9-38.85 14.15-37.1L14.15-37.1Q15.05-35.85 16.98-32.27 18.9-28.7 21.7-23.05L21.7-23.05Q23.35-19.7 25.03-16.25 26.7-12.8 28.4-9.73 30.1-6.65 31.9-4.35 33.7-2.05 35.65-0.95L35.65-0.95Q33.95 0.15 32.65 0.6 31.35 1.05 30.05 1.05L30.05 1.05Q29 1.05 28.18 0.75 27.35 0.45 26.68-0.2 26-0.85 25.3-1.9ZM54.35 0.75L54.35 0.75Q52.4 0.75 50.47-0.03 48.55-0.8 47-2.4 45.45-4 44.5-6.48 43.55-8.95 43.55-12.35L43.55-12.35Q43.55-16.5 44.95-20.1 46.35-23.7 48.87-26.2 51.4-28.7 54.85-29.55L54.85-29.55Q55.4-29.55 55.85-29.25 56.3-28.95 56.35-28.55L56.35-28.55Q54.5-27.45 52.82-25.33 51.15-23.2 50.45-19.9L50.45-19.9 50.75-19.8Q52.15-23.3 54.07-25.23 56-27.15 58.05-27.93 60.1-28.7 61.7-28.7L61.7-28.7Q63.9-28.7 65.62-27.4 67.35-26.1 68.37-23.68 69.4-21.25 69.4-17.85L69.4-17.85Q69.4-14.65 68.55-11.38 67.7-8.1 65.9-5.35 64.1-2.6 61.22-0.93 58.35 0.75 54.35 0.75ZM55.45-2.85L55.45-2.85Q57.25-2.85 58.65-4.1 60.05-5.35 61.02-7.43 62-9.5 62.5-12.03 63-14.55 63-17.05L63-17.05Q63-21.5 61.9-23.28 60.8-25.05 59.1-25.05L59.1-25.05Q57.45-25.05 55.92-23.83 54.4-22.6 53.25-20.6 52.1-18.6 51.42-16.18 50.75-13.75 50.75-11.4L50.75-11.4Q50.75-9.05 51.22-7.1 51.7-5.15 52.72-4 53.75-2.85 55.45-2.85ZM98 1.05L98 1.05Q95.35 0.2 93.9-1.13 92.45-2.45 91.9-4.13 91.35-5.8 91.35-7.8L91.35-7.8Q91.35-8.65 91.42-9.5 91.5-10.35 91.65-11.3L91.65-11.3 91.25-11.4Q90.1-8.05 88.35-5.48 86.6-2.9 84.72-1.45 82.85 0 81.2 0L81.2 0Q78.95 0 77.7-1.13 76.45-2.25 75.95-4.13 75.45-6 75.45-8.3L75.45-8.3Q75.45-10.95 75.87-13.48 76.3-16 76.7-18.4 77.1-20.8 77.1-23.1L77.1-23.1Q77.1-24.5 76.95-25.85 76.8-27.2 76.4-28.6L76.4-28.6Q78.95-28.6 80.7-28.2 82.45-27.8 83.37-26.68 84.3-25.55 84.3-23.25L84.3-23.25Q84.3-21.45 83.77-19 83.25-16.55 82.72-13.93 82.2-11.3 82.2-8.9L82.2-8.9Q82.2-7.05 82.67-6.13 83.15-5.2 84.2-5.2L84.2-5.2Q85.25-5.2 86.37-6.4 87.5-7.6 88.57-9.68 89.65-11.75 90.47-14.35 91.3-16.95 91.72-19.78 92.15-22.6 92.05-25.25L92.05-25.25Q92-26.2 91.9-27.1 91.8-28 91.55-28.85L91.55-28.85Q92.1-28.9 92.65-28.93 93.2-28.95 93.65-28.95L93.65-28.95Q95.25-28.95 96.42-28.6 97.6-28.25 98.27-27.28 98.95-26.3 98.95-24.5L98.95-24.5Q98.95-23.55 98.67-21.7 98.4-19.85 98-17.48 97.6-15.1 97.32-12.58 97.05-10.05 97.05-7.7L97.05-7.7Q97.05-5.4 97.25-3.2 97.45-1 98 1.05ZM113.29-18.4L113.69-18.35Q114.99-22.25 116.49-24.58 117.99-26.9 119.49-27.9 120.99-28.9 122.19-28.9L122.19-28.9Q123.64-28.9 124.57-28.1 125.49-27.3 125.97-26.03 126.44-24.75 126.44-23.3L126.44-23.3Q126.44-21.65 125.87-20.03 125.29-18.4 124.09-17.32 122.89-16.25 120.89-16.25L120.89-16.25Q120.39-16.25 119.94-16.32 119.49-16.4 119.09-16.6L119.09-16.6Q119.54-17.3 120.04-18.5 120.54-19.7 120.59-20.95L120.59-20.95Q120.69-21.8 120.42-22.35 120.14-22.9 119.34-22.9L119.34-22.9Q118.44-22.9 117.32-21.6 116.19-20.3 115.17-17.88 114.14-15.45 113.49-12 112.84-8.55 112.84-4.25L112.84-4.25Q112.84-3.25 112.94-2.2 113.04-1.15 113.09 0L113.09 0Q112.49 0.05 111.99 0.08 111.49 0.1 111.04 0.1L111.04 0.1Q108.19 0.1 106.94-0.9 105.69-1.9 105.69-4.2L105.69-4.2Q105.69-5.3 106.02-7.33 106.34-9.35 106.74-11.9 107.14-14.45 107.47-17.18 107.79-19.9 107.79-22.4L107.79-22.4Q107.79-24.35 107.59-26.25 107.39-28.15 106.94-29.9L106.94-29.9Q110.84-28.65 112.17-26.45 113.49-24.25 113.49-21.35L113.49-21.35Q113.49-20.85 113.44-20.05 113.39-19.25 113.29-18.4L113.29-18.4ZM135.69-4.4L135.69-4.4Q135.69-2.6 135.84-1.28 135.99 0.05 136.29 0.75L136.29 0.75Q133.59 0.05 132.17-1.13 130.74-2.3 130.22-4.03 129.69-5.75 129.69-8.2L129.69-8.2Q129.69-10.4 130.09-13.1 130.49-15.8 130.89-18.6 131.29-21.4 131.29-23.95L131.29-23.95Q131.29-25.25 131.27-26.53 131.24-27.8 130.99-29.05L130.99-29.05Q131.39-29.1 131.99-29.13 132.59-29.15 133.04-29.15L133.04-29.15Q135.99-29.15 137.09-28.15 138.19-27.15 138.19-24.85L138.19-24.85Q138.19-23.4 137.59-20.35 136.99-17.3 136.37-13.2 135.74-9.1 135.69-4.4ZM137.94-32.55L137.94-32.55Q137.14-32.35 136.22-32.2 135.29-32.05 134.39-32.05L134.39-32.05Q133.49-32.05 132.64-32.3 131.79-32.55 131.24-33.23 130.69-33.9 130.69-35.15L130.69-35.15Q130.69-36.25 130.99-37.27 131.29-38.3 131.59-39.4L131.59-39.4Q132.39-39.65 133.32-39.78 134.24-39.9 135.14-39.9L135.14-39.9Q136.09-39.9 136.92-39.65 137.74-39.4 138.29-38.73 138.84-38.05 138.84-36.8L138.84-36.8Q138.84-35.7 138.54-34.68 138.24-33.65 137.94-32.55ZM146.69-4.65L146.69-4.65Q146.69-6.5 146.89-9.58 147.09-12.65 147.56-16.4 148.04-20.15 148.86-24.13 149.69-28.1 150.94-31.83 152.19-35.55 153.94-38.53 155.69-41.5 158.04-43.25 160.39-45 163.39-45L163.39-45Q166.54-45 168.51-43.35 170.49-41.7 170.49-39.2L170.49-39.2Q170.49-37.7 169.79-36.33 169.09-34.95 167.74-34.08 166.39-33.2 164.49-33.2L164.49-33.2Q164.04-33.2 163.51-33.27 162.99-33.35 162.44-33.55L162.44-33.55Q162.89-33.9 163.44-34.7 163.99-35.5 164.39-36.52 164.79-37.55 164.79-38.55L164.79-38.55Q164.79-39.85 164.21-40.58 163.64-41.3 162.69-41.3L162.69-41.3Q160.94-41.3 159.59-39.63 158.24-37.95 157.21-35.1 156.19-32.25 155.44-28.7 154.69-25.15 154.19-21.35 153.69-17.55 153.41-14 153.14-10.45 153.01-7.63 152.89-4.8 152.89-3.15L152.89-3.15Q152.89-1.7 152.91-0.73 152.94 0.25 153.01 1.1 153.09 1.95 153.24 3 153.39 4.05 153.69 5.65L153.69 5.65Q151.79 5.05 150.46 4.13 149.14 3.2 148.29 1.93 147.44 0.65 147.06-1 146.69-2.65 146.69-4.65ZM161.84-29.2L161.84-29.2Q161.89-28.85 161.91-28.48 161.94-28.1 161.94-27.7L161.94-27.7Q161.94-25.15 161.01-24.3 160.09-23.45 158.54-23.45L158.54-23.45Q156.29-23.45 154.41-23.48 152.54-23.5 150.81-23.4 149.09-23.3 147.24-22.85 145.39-22.4 143.24-21.4L143.24-21.4Q143.19-21.8 143.16-22.23 143.14-22.65 143.14-23.05L143.14-23.05Q143.14-25.05 144.04-26.05 144.94-27.05 146.46-27.38 147.99-27.7 149.84-27.7L149.84-27.7Q151.14-27.7 152.49-27.63 153.84-27.55 155.09-27.55L155.09-27.55Q156.99-27.55 158.79-27.88 160.59-28.2 161.84-29.2ZM165.89 11.4L165.89 11.4Q165.89 9.65 166.81 7.23 167.74 4.8 169.26 1.9 170.79-1 172.61-4.25 174.44-7.5 176.26-10.85 178.09-14.2 179.61-17.55 181.14-20.9 182.06-24.05 182.99-27.2 182.99-29.95L182.99-29.95Q185.19-28.85 186.14-27.78 187.09-26.7 187.09-25.4L187.09-25.4Q187.09-23.75 186.04-21.5 184.99-19.25 183.31-16.48 181.64-13.7 179.79-10.43 177.94-7.15 176.26-3.45 174.59 0.25 173.54 4.33 172.49 8.4 172.49 12.8L172.49 12.8Q172.49 13.8 172.56 14.9 172.64 16 172.84 17.1L172.84 17.1Q170.59 16.85 169.21 16.25 167.84 15.65 167.11 14.85 166.39 14.05 166.14 13.13 165.89 12.2 165.89 11.4ZM174.24-5.85L170.14 2.5Q169.79-0.4 169.29-3.8 168.79-7.2 168.16-10.73 167.54-14.25 166.79-17.55 166.04-20.85 165.16-23.58 164.29-26.3 163.24-28L163.24-28Q164.44-28.65 165.74-28.98 167.04-29.3 167.99-29.3L167.99-29.3Q169.59-29.3 170.49-28.05 171.39-26.8 171.86-24.6 172.34-22.4 172.64-19.45 172.94-16.5 173.26-13.03 173.59-9.55 174.24-5.85L174.24-5.85Z" opacity="1" transform="matrix(1,0,0,1,0,0)" fill="#6a704c" class="wordmark-text-0" data-fill-palette-color="primary" id="text-0"></path></svg></g></svg></g></svg></g></svg></g></svg></g><defs></defs></svg><rect width="395.52" height="133.41549158066266" fill="none" stroke="none" visibility="hidden"></rect></g></svg></g></svg>