<svg width="1117" height="597" viewBox="0 0 1117 597" fill="none" xmlns="http://www.w3.org/2000/svg">
<path d="M58.8574 597C58.8574 582.573 59.3721 568.173 60.4134 553.798C61.4487 539.416 63.0046 525.106 65.0753 510.86C67.1459 496.614 69.7254 482.477 72.8195 468.451C75.9077 454.424 79.4988 440.558 83.5869 426.841C87.6809 413.123 92.26 399.599 97.3242 386.275C102.388 372.944 107.926 359.858 113.937 347.005C119.948 334.158 126.408 321.581 133.33 309.282C140.246 296.983 147.594 284.999 155.373 273.332L359.8 435.163C352.008 446.849 345.104 459.129 339.087 472.002C333.065 484.875 328.006 498.18 323.912 511.917C319.813 525.654 316.73 539.661 314.654 553.927C312.577 568.198 311.542 582.554 311.542 597H58.8574Z" fill="#DCF323"/>
<path d="M155.373 273.331C163.153 261.663 171.341 250.344 179.937 239.379C188.539 228.408 197.514 217.829 206.873 207.625C216.239 197.427 225.947 187.648 236.016 178.276C246.08 168.909 256.468 159.988 267.177 151.511C277.891 143.035 288.889 135.028 300.171 127.486C311.459 119.951 323.001 112.912 334.792 106.362C346.589 99.813 358.605 93.7794 370.833 88.2615C383.062 82.7435 395.474 77.7542 408.064 73.2935L486.145 335.15C473.538 339.61 461.327 345.122 449.512 351.678C437.698 358.24 426.433 365.762 415.707 374.252C404.981 382.748 394.93 392.095 385.553 402.312C376.181 412.529 367.597 423.475 359.8 435.162L155.373 273.331Z" fill="#4CDE18"/>
<path d="M408.064 73.2931C420.654 68.8388 433.379 64.926 446.253 61.5611C459.126 58.1898 472.1 55.3792 485.175 53.1231C498.25 50.8669 511.383 49.1716 524.582 48.0435C537.775 46.909 550.992 46.3481 564.232 46.3481C577.467 46.3481 590.683 46.909 603.882 48.0435C617.081 49.1716 630.215 50.8669 643.29 53.1231C656.364 55.3792 669.339 58.1898 682.206 61.5611C695.08 64.926 707.811 68.8388 720.401 73.2931L642.314 335.149C629.706 330.682 616.856 327.324 603.758 325.061C590.666 322.798 577.49 321.67 564.232 321.67C550.974 321.67 537.799 322.798 524.701 325.061C511.608 327.324 498.758 330.682 486.145 335.149L408.064 73.2931Z" fill="#DC8429"/>
<path d="M720.401 73.2935C732.99 77.7542 745.402 82.7435 757.631 88.2615C769.86 93.7794 781.875 99.813 793.666 106.362C805.463 112.912 817.005 119.951 828.287 127.486C839.575 135.028 850.574 143.035 861.282 151.511C871.996 159.988 882.379 168.909 892.448 178.276C902.511 187.648 912.226 197.427 921.585 207.625C930.944 217.829 939.925 228.408 948.521 239.379C957.117 250.344 965.305 261.663 973.091 273.331L768.659 435.162C760.867 423.475 752.283 412.529 742.912 402.312C733.534 392.095 723.483 382.748 712.757 374.252C702.031 365.762 690.761 358.24 678.952 351.678C667.138 345.122 654.927 339.61 642.313 335.15L720.401 73.2935Z" fill="#E76C37"/>
<path d="M973.091 273.332C980.871 284.999 988.219 296.983 995.135 309.282C1002.05 321.581 1008.52 334.158 1014.52 347.005C1020.53 359.858 1026.07 372.944 1031.14 386.275C1036.2 399.599 1040.78 413.123 1044.87 426.841C1048.97 440.558 1052.55 454.424 1055.64 468.451C1058.73 482.477 1061.31 496.614 1063.38 510.86C1065.45 525.106 1067.01 539.416 1068.05 553.798C1069.09 568.173 1069.61 582.573 1069.61 597H816.917C816.917 582.554 815.881 568.198 813.811 553.927C811.734 539.661 808.652 525.654 804.552 511.917C800.452 498.18 795.4 484.875 789.377 472.002C783.36 459.129 776.45 446.849 768.659 435.163L973.091 273.332Z" fill="#ED0808"/>
<path d="M130.123 485.929C130.123 487.856 129.827 489.532 129.247 490.957C128.679 492.369 127.745 493.458 126.455 494.232C125.177 494.992 123.479 495.366 121.367 495.366C119.237 495.366 117.521 494.979 116.232 494.206C114.954 493.432 114.031 492.336 113.463 490.905C112.895 489.462 112.611 487.753 112.611 485.774V471.18H117.107V486.135C117.107 487.927 117.498 489.229 118.291 490.055C119.077 490.867 120.101 491.266 121.367 491.266C122.201 491.266 122.941 491.086 123.591 490.725C124.236 490.364 124.739 489.816 125.106 489.075C125.467 488.321 125.65 487.341 125.65 486.135V471.18H130.123V485.929Z" fill="#404040"/>
<path d="M133.965 495.031V477.962H138.319V480.386C138.556 479.96 138.863 479.554 139.242 479.174C139.633 478.781 140.129 478.452 140.733 478.194C141.33 477.936 142.04 477.807 142.863 477.807C143.809 477.807 144.697 478.013 145.537 478.426C146.371 478.839 147.04 479.483 147.548 480.36C148.069 481.236 148.329 482.384 148.329 483.789V495.031H143.904V484.382C143.904 483.454 143.65 482.758 143.147 482.294C142.638 481.83 142.023 481.597 141.301 481.597C140.828 481.597 140.36 481.694 139.905 481.881C139.461 482.074 139.1 482.358 138.816 482.732C138.532 483.093 138.39 483.551 138.39 484.099V495.031H133.965Z" fill="#404040"/>
<path d="M157.742 495.366C155.641 495.366 154.003 494.579 152.819 492.994C151.648 491.414 151.068 489.216 151.068 486.393C151.068 484.626 151.305 483.086 151.778 481.777C152.251 480.456 152.949 479.431 153.884 478.709C154.813 477.987 155.949 477.626 157.292 477.626C157.86 477.626 158.386 477.697 158.877 477.832C159.363 477.974 159.806 478.167 160.203 478.425C160.611 478.67 160.966 478.954 161.268 479.276C161.581 479.585 161.835 479.921 162.025 480.282V470.509H166.45V495.03H163.255L162.758 491.524C162.616 492.007 162.415 492.471 162.167 492.916C161.912 493.367 161.587 493.78 161.197 494.154C160.8 494.515 160.309 494.811 159.729 495.03C159.161 495.25 158.499 495.366 157.742 495.366ZM158.712 491.885C159.812 491.885 160.64 491.466 161.197 490.621C161.747 489.783 162.025 488.352 162.025 486.341C162.007 485.174 161.883 484.201 161.646 483.427C161.41 482.654 161.043 482.08 160.558 481.7C160.084 481.326 159.475 481.133 158.735 481.133C157.771 481.133 156.972 481.539 156.345 482.344C155.712 483.137 155.399 484.472 155.399 486.341C155.399 488.236 155.689 489.635 156.274 490.544C156.872 491.44 157.682 491.885 158.712 491.885Z" fill="#404040"/>
<path d="M173.883 487.604C173.865 488.481 173.983 489.241 174.238 489.873C174.504 490.511 174.889 491.008 175.397 491.369C175.9 491.717 176.498 491.884 177.196 491.884C177.953 491.884 178.616 491.717 179.184 491.369C179.763 491.008 180.166 490.428 180.391 489.615H184.366C184.189 490.821 183.751 491.852 183.041 492.71C182.331 493.573 181.467 494.231 180.462 494.695C179.45 495.14 178.403 495.365 177.314 495.365C175.764 495.365 174.403 495.017 173.22 494.308C172.049 493.586 171.138 492.581 170.475 491.291C169.824 489.989 169.505 488.455 169.505 486.702C169.505 485 169.795 483.466 170.38 482.086C170.978 480.713 171.848 479.63 172.984 478.837C174.119 478.032 175.48 477.625 177.078 477.625C178.669 477.625 180.012 477.999 181.101 478.734C182.189 479.476 183.006 480.5 183.562 481.803C184.112 483.092 184.39 484.587 184.39 486.289V487.604H173.883ZM173.859 484.742H180.249C180.249 484.059 180.13 483.427 179.894 482.86C179.669 482.28 179.326 481.822 178.852 481.493C178.379 481.171 177.787 481.003 177.078 481.003C176.397 481.003 175.811 481.184 175.326 481.545C174.853 481.906 174.486 482.37 174.238 482.937C173.983 483.504 173.859 484.11 173.859 484.742Z" fill="#404040"/>
<path d="M187.452 495.03V477.961H191.712V482.009C191.96 481.132 192.315 480.372 192.776 479.714C193.232 479.063 193.782 478.554 194.433 478.193C195.096 477.819 195.841 477.625 196.681 477.625C196.823 477.625 196.953 477.638 197.083 477.651C197.208 477.671 197.302 477.696 197.367 477.729V482.318C197.273 482.286 197.16 482.26 197.036 482.241C196.906 482.228 196.788 482.215 196.681 482.215C195.811 482.131 195.072 482.157 194.457 482.293C193.841 482.434 193.344 482.666 192.966 482.989C192.587 483.298 192.309 483.685 192.137 484.149C191.96 484.6 191.877 485.116 191.877 485.696V495.03H187.452Z" fill="#404040"/>
<path d="M226.62 471.18L220.159 495.031H216.633L212.515 479.431L208.374 495.031H204.895L198.435 471.18H202.766L206.86 486.935L210.93 471.18H214.125L218.242 486.935L222.313 471.18H226.62Z" fill="#404040"/>
<path d="M232.73 487.604C232.712 488.481 232.83 489.241 233.085 489.873C233.351 490.511 233.735 491.008 234.244 491.369C234.747 491.717 235.345 491.884 236.043 491.884C236.8 491.884 237.463 491.717 238.031 491.369C238.61 491.008 239.013 490.428 239.238 489.615H243.213C243.036 490.821 242.598 491.852 241.888 492.71C241.178 493.573 240.314 494.231 239.309 494.695C238.297 495.14 237.25 495.365 236.161 495.365C234.611 495.365 233.25 495.017 232.067 494.308C230.896 493.586 229.985 492.581 229.322 491.291C228.671 489.989 228.352 488.455 228.352 486.702C228.352 485 228.642 483.466 229.227 482.086C229.825 480.713 230.695 479.63 231.83 478.837C232.966 478.032 234.327 477.625 235.924 477.625C237.516 477.625 238.859 477.999 239.947 478.734C241.036 479.476 241.852 480.5 242.409 481.803C242.959 483.092 243.237 484.587 243.237 486.289V487.604H232.73ZM232.706 484.742H239.096C239.096 484.059 238.977 483.427 238.741 482.86C238.516 482.28 238.173 481.822 237.699 481.493C237.226 481.171 236.634 481.003 235.924 481.003C235.244 481.003 234.658 481.184 234.173 481.545C233.7 481.906 233.333 482.37 233.085 482.937C232.83 483.504 232.706 484.11 232.706 484.742Z" fill="#404040"/>
<path d="M250.748 477.962V495.031H246.535V477.962H250.748ZM250.795 471.18V475.538H246.488V471.18H250.795Z" fill="#404040"/>
<path d="M262.027 500.678C259.234 500.678 257.11 500.291 255.661 499.517C254.206 498.744 253.484 497.725 253.484 496.475C253.484 495.888 253.626 495.398 253.91 495.005C254.194 494.612 254.525 494.302 254.904 494.077C255.282 493.838 255.626 493.658 255.945 493.535C256.259 493.4 256.454 493.316 256.537 493.278C256.377 493.174 256.14 493.033 255.827 492.839C255.525 492.633 255.247 492.369 254.998 492.04C254.744 491.698 254.62 491.26 254.62 490.725C254.62 490.125 254.88 489.565 255.401 489.049C255.933 488.533 256.738 488.172 257.815 487.966C256.785 487.437 256.004 486.722 255.472 485.826C254.933 484.917 254.667 483.989 254.667 483.041C254.667 481.926 254.987 480.972 255.637 480.179C256.282 479.373 257.164 478.761 258.288 478.348C259.406 477.923 260.666 477.704 262.074 477.704C263.163 477.704 264.044 477.833 264.725 478.09C265.417 478.335 266.056 478.651 266.641 479.044C266.86 478.941 267.162 478.812 267.541 478.658C267.931 478.503 268.351 478.335 268.795 478.142C269.233 477.936 269.67 477.742 270.096 477.549C270.522 477.362 270.901 477.188 271.232 477.033V480.746L268.511 481.236C268.617 481.533 268.706 481.848 268.771 482.19C268.83 482.538 268.866 482.822 268.866 483.041C268.866 484.021 268.594 484.943 268.061 485.8C267.541 486.664 266.748 487.36 265.695 487.889C264.636 488.424 263.328 488.688 261.766 488.688C261.577 488.688 261.323 488.681 261.009 488.662C260.69 488.649 260.429 488.63 260.228 488.611C259.625 488.649 259.217 488.733 258.998 488.868C258.773 488.991 258.666 489.146 258.666 489.332C258.666 489.59 258.891 489.764 259.353 489.848C259.808 489.938 260.495 490.003 261.412 490.054C261.725 490.093 262.169 490.125 262.737 490.158C263.317 490.177 263.967 490.222 264.677 490.287C266.582 490.428 268.014 490.944 268.961 491.834C269.907 492.71 270.38 493.819 270.38 495.16C270.38 496.758 269.682 498.073 268.298 499.105C266.908 500.149 264.819 500.678 262.027 500.678ZM262.737 497.996C263.967 497.996 264.843 497.822 265.364 497.48C265.884 497.152 266.144 496.681 266.144 496.062C266.144 495.547 265.937 495.121 265.529 494.799C265.133 494.477 264.547 494.283 263.778 494.232L260.181 493.974C259.72 493.961 259.311 494.038 258.95 494.206C258.584 494.38 258.3 494.618 258.098 494.928C257.909 495.237 257.815 495.572 257.815 495.933C257.815 496.636 258.205 497.152 258.998 497.48C259.802 497.822 261.045 497.996 262.737 497.996ZM261.885 485.98C262.737 485.98 263.411 485.736 263.92 485.233C264.423 484.736 264.677 484.06 264.677 483.196C264.677 482.306 264.423 481.591 263.92 481.056C263.411 480.527 262.737 480.256 261.885 480.256C261.062 480.256 260.394 480.527 259.873 481.056C259.353 481.591 259.092 482.306 259.092 483.196C259.092 484.04 259.335 484.717 259.826 485.233C260.329 485.736 261.015 485.98 261.885 485.98Z" fill="#404040"/>
<path d="M273.777 495.03V470.509H278.178V480.436C278.427 480.043 278.746 479.65 279.125 479.25C279.503 478.857 279.977 478.528 280.545 478.27C281.124 478 281.834 477.858 282.674 477.858C283.668 477.858 284.574 478.077 285.396 478.503C286.212 478.934 286.875 479.553 287.384 480.359C287.887 481.152 288.141 482.125 288.141 483.273V495.03H283.692V483.995C283.692 483.221 283.438 482.628 282.935 482.216C282.426 481.803 281.805 481.597 281.065 481.597C280.592 481.597 280.131 481.693 279.693 481.88C279.249 482.074 278.888 482.357 278.604 482.731C278.332 483.112 278.202 483.582 278.202 484.149V495.03H273.777Z" fill="#404040"/>
<path d="M301.253 481.313H297.775L297.798 490.415C297.798 490.828 297.846 491.137 297.94 491.343C298.035 491.55 298.183 491.692 298.39 491.756C298.609 491.808 298.875 491.833 299.195 491.833H301.301V494.799C301.094 494.902 300.78 494.998 300.354 495.082C299.928 495.166 299.325 495.211 298.556 495.211C297.183 495.211 296.118 495.024 295.361 494.644C294.616 494.251 294.095 493.709 293.799 493.019C293.515 492.336 293.373 491.524 293.373 490.596V481.313H290.817V477.961H293.515L294.627 472.83H297.775V477.961H301.253V481.313Z" fill="#404040"/>
<path d="M273.443 239.919L265.989 246.494L271.905 254.435L268.497 257.478L254.724 238.939L258.132 235.896L263.646 243.348L271.1 236.773L265.586 229.321L269.018 226.304L282.791 244.843L279.359 247.86L273.443 239.919Z" fill="#404040"/>
<path d="M284.718 233.595C285.203 234.284 285.735 234.794 286.303 235.116C286.871 235.425 287.445 235.548 288.031 235.477C288.628 235.393 289.202 235.116 289.758 234.652C290.338 234.123 290.752 233.517 290.989 232.847C291.237 232.176 291.214 231.467 290.918 230.707L294.018 227.974C294.568 229.024 294.823 230.127 294.775 231.274C294.728 232.428 294.432 233.53 293.9 234.574C293.379 235.625 292.693 236.521 291.841 237.256C290.64 238.326 289.38 238.984 288.054 239.241C286.741 239.499 285.457 239.345 284.197 238.777C282.937 238.21 281.801 237.25 280.789 235.889C279.796 234.568 279.133 233.176 278.802 231.712C278.47 230.236 278.518 228.799 278.944 227.406C279.358 226.001 280.186 224.75 281.428 223.667C282.659 222.572 283.907 221.933 285.167 221.759C286.445 221.572 287.676 221.798 288.859 222.43C290.042 223.068 291.131 224.048 292.125 225.369L292.882 226.375L284.718 233.595ZM283.038 231.377L288.007 226.994C287.611 226.465 287.155 226.059 286.635 225.782C286.114 225.492 285.576 225.382 285.025 225.447C284.493 225.498 283.949 225.775 283.393 226.272C282.86 226.736 282.511 227.277 282.351 227.896C282.18 228.502 282.162 229.108 282.304 229.727C282.434 230.333 282.677 230.881 283.038 231.377Z" fill="#404040"/>
<path d="M303.25 227.201C302.475 227.872 301.665 228.329 300.813 228.568C299.961 228.793 299.121 228.768 298.305 228.491C297.5 228.2 296.784 227.627 296.151 226.763C295.063 225.306 294.743 223.759 295.181 222.122C295.607 220.491 296.897 218.712 299.038 216.784L300.505 215.443L299.914 214.644C299.452 214.045 298.944 213.716 298.376 213.664C297.808 213.613 297.192 213.896 296.53 214.515C296.027 214.966 295.642 215.514 295.37 216.165C295.104 216.804 295.11 217.506 295.394 218.28L292.554 220.807C291.909 219.814 291.584 218.795 291.584 217.764C291.572 216.733 291.844 215.721 292.412 214.721C292.98 213.709 293.779 212.755 294.802 211.859C296.033 210.764 297.157 210.048 298.163 209.719C299.168 209.397 300.068 209.397 300.86 209.719C301.665 210.048 302.387 210.648 303.038 211.524L309.971 220.832L307.108 223.359L305.144 221.322C305.439 222.65 305.41 223.772 305.049 224.7C304.7 225.616 304.102 226.447 303.25 227.201ZM302.588 223.72C302.901 223.45 303.156 223.121 303.345 222.741C303.546 222.347 303.688 221.941 303.771 221.529C303.848 221.116 303.854 220.723 303.795 220.343C303.73 219.949 303.594 219.608 303.392 219.311L301.925 217.352L300.718 218.486C300.15 219.002 299.677 219.543 299.299 220.11C298.92 220.678 298.689 221.258 298.612 221.838C298.547 222.425 298.713 222.985 299.109 223.514C299.565 224.133 300.115 224.455 300.766 224.468C301.428 224.468 302.032 224.223 302.588 223.72Z" fill="#404040"/>
<path d="M317.097 214.954C316.198 215.747 315.399 216.263 314.707 216.501C314.009 216.727 313.393 216.759 312.861 216.604C312.323 216.437 311.849 216.153 311.441 215.753C311.015 215.341 310.625 214.896 310.258 214.413L298.852 199.096L302.212 196.105L313.263 210.983C313.642 211.467 314.032 211.776 314.447 211.911C314.855 212.053 315.358 211.911 315.961 211.499L316.553 211.061L318.28 213.381C318.103 213.678 317.925 213.961 317.736 214.232C317.547 214.509 317.334 214.748 317.097 214.954Z" fill="#404040"/>
<path d="M320.151 194.202L317.454 196.574L322.731 203.639C322.968 203.968 323.181 204.174 323.37 204.258C323.571 204.348 323.772 204.348 323.961 204.258C324.163 204.155 324.393 204 324.648 203.794L326.281 202.35L327.984 204.645C327.89 204.87 327.7 205.16 327.416 205.521C327.133 205.869 326.689 206.308 326.091 206.836C325.015 207.765 324.08 208.345 323.275 208.564C322.471 208.77 321.761 208.712 321.145 208.383C320.53 208.061 319.95 207.533 319.418 206.811L314.046 199.617L312.058 201.37L310.118 198.766L312.2 196.909L310.118 192.139L312.555 189.973L315.513 193.97L318.211 191.598L320.151 194.202Z" fill="#404040"/>
<path d="M330.611 202.625L316.436 183.57L319.867 180.553L325.618 188.263C325.571 187.766 325.582 187.244 325.642 186.69C325.707 186.123 325.89 185.543 326.186 184.937C326.488 184.337 326.961 183.751 327.606 183.183C328.381 182.5 329.203 182.042 330.09 181.817C330.972 181.578 331.842 181.598 332.694 181.868C333.557 182.145 334.326 182.732 334.989 183.622L341.781 192.749L338.326 195.818L331.96 187.231C331.499 186.651 330.954 186.368 330.327 186.381C329.694 186.4 329.091 186.664 328.505 187.18C328.144 187.509 327.854 187.895 327.629 188.34C327.393 188.791 327.274 189.256 327.274 189.733C327.274 190.216 327.434 190.68 327.748 191.125L334.042 199.582L330.611 202.625Z" fill="#404040"/>
<path d="M349.59 192.872C348.75 193.607 348.111 194.045 347.673 194.187C347.23 194.342 347.011 194.419 347.011 194.419L345.236 192.021L346.443 191.015C347.011 190.59 347.413 190.184 347.65 189.804C347.898 189.43 348.058 189.101 348.123 188.824C348.2 188.534 348.206 188.276 348.147 188.05C348.099 187.831 348.064 187.657 348.052 187.535L347.697 186.581L333.522 178.072L336.93 175.081L346.277 181.14L342.798 169.898L346.135 166.933L351.152 184.621C351.56 186.116 351.75 187.373 351.72 188.385C351.702 189.404 351.507 190.261 351.128 190.964C350.75 191.667 350.235 192.305 349.59 192.872Z" fill="#404040"/>
<path d="M493.795 150.553C491.725 150.553 489.938 150.063 488.423 149.083C486.921 148.091 485.755 146.679 484.921 144.855C484.099 143.037 483.69 140.858 483.69 138.331C483.69 135.791 484.105 133.606 484.945 131.782C485.779 129.945 486.956 128.526 488.471 127.527C489.985 126.535 491.76 126.032 493.795 126.032C495.83 126.032 497.593 126.535 499.096 127.527C500.611 128.507 501.776 129.919 502.598 131.756C503.415 133.6 503.829 135.791 503.829 138.331C503.829 140.858 503.415 143.037 502.598 144.855C501.794 146.679 500.634 148.091 499.12 149.083C497.617 150.063 495.842 150.553 493.795 150.553ZM493.795 146.582C494.866 146.582 495.789 146.311 496.564 145.757C497.351 145.209 497.96 144.332 498.386 143.127C498.812 141.909 499.025 140.336 499.025 138.408C499.025 136.417 498.812 134.811 498.386 133.587C497.96 132.349 497.351 131.44 496.564 130.853C495.789 130.273 494.866 129.977 493.795 129.977C492.736 129.977 491.813 130.273 491.026 130.853C490.234 131.44 489.618 132.349 489.181 133.587C488.755 134.824 488.542 136.436 488.542 138.408C488.542 140.355 488.755 141.928 489.181 143.127C489.618 144.332 490.234 145.209 491.026 145.757C491.813 146.311 492.736 146.582 493.795 146.582Z" fill="#404040"/>
<path d="M520.633 133.148L514.764 150.217H511.569L505.677 133.148H509.676L513.084 144.029H513.202L516.586 133.148H520.633Z" fill="#404040"/>
<path d="M526.557 142.792C526.539 143.668 526.657 144.429 526.912 145.061C527.178 145.699 527.562 146.195 528.071 146.556C528.574 146.904 529.172 147.072 529.87 147.072C530.627 147.072 531.29 146.904 531.858 146.556C532.437 146.195 532.84 145.615 533.064 144.803H537.04C536.863 146.008 536.425 147.04 535.715 147.897C535.005 148.761 534.141 149.418 533.135 149.882C532.124 150.327 531.077 150.553 529.988 150.553C528.438 150.553 527.077 150.205 525.894 149.496C524.723 148.774 523.812 147.768 523.149 146.479C522.498 145.177 522.179 143.643 522.179 141.889C522.179 140.187 522.469 138.653 523.054 137.274C523.652 135.901 524.522 134.818 525.657 134.025C526.793 133.219 528.154 132.813 529.751 132.813C531.343 132.813 532.686 133.187 533.774 133.922C534.863 134.663 535.679 135.688 536.235 136.99C536.786 138.279 537.064 139.775 537.064 141.477V142.792H526.557ZM526.533 139.93H532.922C532.922 139.246 532.804 138.615 532.567 138.047C532.343 137.467 532 137.009 531.526 136.681C531.053 136.358 530.461 136.191 529.751 136.191C529.071 136.191 528.485 136.371 528 136.732C527.527 137.093 527.16 137.557 526.912 138.125C526.657 138.692 526.533 139.298 526.533 139.93Z" fill="#404040"/>
<path d="M540.125 150.218V133.148H544.385V137.196C544.634 136.32 544.989 135.559 545.45 134.902C545.906 134.25 546.456 133.741 547.107 133.38C547.769 133.006 548.515 132.813 549.355 132.813C549.497 132.813 549.627 132.826 549.757 132.839C549.881 132.858 549.976 132.884 550.041 132.916V137.506C549.946 137.474 549.834 137.448 549.71 137.428C549.579 137.416 549.461 137.403 549.355 137.403C548.485 137.319 547.745 137.345 547.13 137.48C546.515 137.622 546.018 137.854 545.639 138.176C545.261 138.486 544.983 138.872 544.811 139.337C544.634 139.788 544.551 140.303 544.551 140.884V150.218H540.125Z" fill="#404040"/>
<path d="M574.04 133.148L568.881 150.217H565.378L562.444 139.878L559.533 150.217H556.125L551.038 133.148H554.942L557.948 143.72H558.066L560.953 133.148H564.1L567.011 143.72H567.13L570.04 133.148H574.04Z" fill="#404040"/>
<path d="M580.044 142.792C580.026 143.668 580.145 144.429 580.399 145.061C580.665 145.699 581.05 146.195 581.558 146.556C582.061 146.904 582.659 147.072 583.357 147.072C584.114 147.072 584.777 146.904 585.345 146.556C585.925 146.195 586.327 145.615 586.552 144.803H590.527C590.35 146.008 589.912 147.04 589.202 147.897C588.492 148.761 587.628 149.418 586.623 149.882C585.611 150.327 584.564 150.553 583.475 150.553C581.925 150.553 580.565 150.205 579.381 149.496C578.21 148.774 577.299 147.768 576.636 146.479C575.985 145.177 575.666 143.643 575.666 141.889C575.666 140.187 575.956 138.653 576.542 137.274C577.139 135.901 578.009 134.818 579.145 134.025C580.281 133.219 581.641 132.813 583.239 132.813C584.83 132.813 586.173 133.187 587.262 133.922C588.35 134.663 589.167 135.688 589.723 136.99C590.273 138.279 590.551 139.775 590.551 141.477V142.792H580.044ZM580.02 139.93H586.41C586.41 139.246 586.291 138.615 586.055 138.047C585.83 137.467 585.487 137.009 585.014 136.681C584.54 136.358 583.949 136.191 583.239 136.191C582.558 136.191 581.973 136.371 581.487 136.732C581.014 137.093 580.647 137.557 580.399 138.125C580.145 138.692 580.02 139.298 580.02 139.93Z" fill="#404040"/>
<path d="M598.062 133.148V150.218H593.85V133.148H598.062ZM598.109 126.367V130.724H593.802V126.367H598.109Z" fill="#404040"/>
<path d="M609.341 155.864C606.549 155.864 604.425 155.477 602.975 154.704C601.52 153.93 600.798 152.912 600.798 151.661C600.798 151.075 600.94 150.585 601.224 150.192C601.508 149.798 601.84 149.489 602.218 149.263C602.597 149.025 602.94 148.844 603.259 148.722C603.573 148.587 603.768 148.503 603.851 148.464C603.691 148.361 603.455 148.219 603.141 148.026C602.839 147.819 602.561 147.555 602.313 147.226C602.058 146.885 601.934 146.446 601.934 145.911C601.934 145.312 602.195 144.751 602.715 144.235C603.248 143.72 604.052 143.359 605.129 143.152C604.1 142.624 603.319 141.908 602.786 141.012C602.248 140.103 601.982 139.175 601.982 138.228C601.982 137.112 602.301 136.158 602.952 135.365C603.597 134.56 604.478 133.947 605.602 133.535C606.72 133.109 607.981 132.89 609.389 132.89C610.477 132.89 611.359 133.019 612.039 133.277C612.731 133.522 613.37 133.838 613.956 134.231C614.175 134.128 614.476 133.999 614.855 133.844C615.246 133.689 615.666 133.522 616.109 133.328C616.547 133.122 616.985 132.929 617.411 132.735C617.837 132.548 618.215 132.374 618.547 132.22V135.933L615.825 136.423C615.932 136.719 616.021 137.035 616.086 137.377C616.145 137.725 616.18 138.008 616.18 138.228C616.18 139.207 615.908 140.129 615.376 140.987C614.855 141.85 614.062 142.546 613.009 143.075C611.95 143.61 610.643 143.874 609.081 143.874C608.892 143.874 608.637 143.868 608.324 143.849C608.004 143.836 607.744 143.816 607.543 143.797C606.939 143.836 606.531 143.92 606.312 144.055C606.087 144.177 605.981 144.332 605.981 144.519C605.981 144.777 606.206 144.951 606.667 145.035C607.123 145.125 607.809 145.189 608.726 145.241C609.04 145.28 609.483 145.312 610.051 145.344C610.631 145.363 611.282 145.409 611.992 145.473C613.897 145.615 615.328 146.131 616.275 147.02C617.222 147.897 617.695 149.006 617.695 150.346C617.695 151.945 616.997 153.26 615.612 154.291C614.222 155.336 612.134 155.864 609.341 155.864ZM610.051 153.183C611.282 153.183 612.157 153.009 612.678 152.667C613.199 152.338 613.459 151.868 613.459 151.249C613.459 150.733 613.252 150.308 612.844 149.985C612.447 149.663 611.862 149.47 611.092 149.418L607.495 149.16C607.034 149.147 606.626 149.225 606.265 149.392C605.898 149.566 605.614 149.805 605.413 150.114C605.224 150.424 605.129 150.759 605.129 151.12C605.129 151.823 605.519 152.338 606.312 152.667C607.117 153.009 608.359 153.183 610.051 153.183ZM609.199 141.167C610.051 141.167 610.726 140.922 611.234 140.419C611.737 139.923 611.992 139.246 611.992 138.382C611.992 137.493 611.737 136.777 611.234 136.242C610.726 135.714 610.051 135.443 609.199 135.443C608.377 135.443 607.708 135.714 607.188 136.242C606.667 136.777 606.407 137.493 606.407 138.382C606.407 139.227 606.649 139.904 607.14 140.419C607.643 140.922 608.33 141.167 609.199 141.167Z" fill="#404040"/>
<path d="M621.091 150.218V125.696H625.492V135.623C625.741 135.23 626.06 134.837 626.439 134.437C626.818 134.044 627.291 133.715 627.859 133.457C628.439 133.187 629.149 133.045 629.989 133.045C630.983 133.045 631.888 133.264 632.71 133.69C633.527 134.121 634.189 134.74 634.698 135.546C635.201 136.339 635.455 137.312 635.455 138.46V150.218H631.006V139.182C631.006 138.408 630.752 137.815 630.249 137.403C629.74 136.99 629.119 136.784 628.38 136.784C627.906 136.784 627.445 136.88 627.007 137.067C626.563 137.261 626.202 137.544 625.918 137.918C625.646 138.299 625.516 138.769 625.516 139.336V150.218H621.091Z" fill="#404040"/>
<path d="M648.568 136.5H645.089L645.113 145.602C645.113 146.015 645.16 146.324 645.255 146.53C645.35 146.737 645.497 146.879 645.704 146.943C645.923 146.995 646.19 147.02 646.509 147.02H648.615V149.986C648.408 150.089 648.095 150.185 647.669 150.269C647.243 150.353 646.639 150.398 645.87 150.398C644.498 150.398 643.433 150.211 642.675 149.831C641.93 149.438 641.409 148.896 641.114 148.206C640.83 147.523 640.688 146.711 640.688 145.783V136.5H638.132V133.148H640.83L641.942 128.017H645.089V133.148H648.568V136.5Z" fill="#404040"/>
<path d="M793.354 190.93C791.632 189.654 790.402 188.152 789.662 186.418C788.917 184.677 788.674 182.808 788.929 180.797C789.177 178.772 789.958 176.716 791.271 174.634C792.579 172.52 794.052 170.966 795.697 169.967C797.335 168.974 799.039 168.523 800.808 168.626C802.571 168.729 804.299 169.4 805.991 170.637C807.677 171.894 808.884 173.39 809.611 175.124C810.351 176.864 810.588 178.747 810.321 180.771C810.049 182.782 809.262 184.845 807.955 186.959C806.642 189.035 805.174 190.582 803.553 191.6C801.944 192.612 800.264 193.07 798.513 192.967C796.762 192.864 795.04 192.181 793.354 190.93ZM795.389 187.63C796.271 188.281 797.176 188.616 798.11 188.635C799.039 188.667 799.992 188.313 800.974 187.578C801.95 186.837 802.938 185.67 803.932 184.071C804.955 182.421 805.612 180.964 805.896 179.688C806.18 178.418 806.145 177.303 805.801 176.336C805.452 175.356 804.837 174.544 803.956 173.886C803.068 173.235 802.157 172.919 801.211 172.932C800.264 172.932 799.282 173.313 798.276 174.067C797.282 174.827 796.271 176.02 795.247 177.651C794.253 179.269 793.62 180.706 793.354 181.957C793.1 183.214 793.153 184.303 793.52 185.232C793.88 186.173 794.502 186.972 795.389 187.63Z" fill="#404040"/>
<path d="M811.625 204.455C810.974 203.972 810.471 203.462 810.11 202.934C809.761 202.399 809.519 201.857 809.377 201.309C809.247 200.774 809.199 200.239 809.235 199.711C809.264 199.195 809.335 198.686 809.448 198.189L807.247 200.794L804.573 198.834L817.21 178.542L820.901 181.275L815.861 189.371C816.204 189.165 816.583 189.029 816.997 188.959C817.405 188.894 817.837 188.875 818.298 188.907C818.754 188.946 819.221 189.055 819.694 189.242C820.18 189.436 820.653 189.7 821.114 190.041C822.723 191.228 823.587 192.794 823.717 194.734C823.842 196.681 823.185 198.795 821.753 201.103C820.818 202.599 819.801 203.74 818.701 204.532C817.594 205.338 816.441 205.751 815.245 205.77C814.044 205.783 812.838 205.345 811.625 204.455ZM812.642 200.974C813.411 201.554 814.275 201.683 815.222 201.361C816.18 201.052 817.174 200.072 818.204 198.421C819.115 196.965 819.552 195.701 819.505 194.631C819.458 193.548 818.996 192.691 818.133 192.053C817.529 191.608 816.932 191.395 816.334 191.408C815.731 191.408 815.133 191.666 814.536 192.182C813.932 192.684 813.335 193.413 812.737 194.373C811.708 196.043 811.205 197.384 811.222 198.396C811.234 199.427 811.708 200.284 812.642 200.974Z" fill="#404040"/>
<path d="M826.593 206.124C826.119 206.846 825.824 207.555 825.717 208.238C825.605 208.908 825.67 209.54 825.906 210.146C826.143 210.746 826.545 211.261 827.113 211.693C827.74 212.157 828.391 212.415 829.054 212.467C829.716 212.531 830.338 212.299 830.923 211.771L834.213 214.194C833.455 215.084 832.556 215.67 831.515 215.948C830.486 216.218 829.438 216.238 828.368 215.999C827.309 215.774 826.332 215.329 825.433 214.658C824.138 213.711 823.185 212.576 822.57 211.255C821.966 209.946 821.73 208.567 821.86 207.104C822.002 205.627 822.522 204.164 823.422 202.72C824.303 201.315 825.344 200.219 826.545 199.445C827.74 198.659 829.012 198.285 830.355 198.337C831.71 198.375 833.041 198.872 834.355 199.832C835.68 200.812 836.603 201.94 837.123 203.21C837.644 204.486 837.792 205.834 837.573 207.258C837.366 208.67 836.822 210.075 835.94 211.487L835.278 212.57L826.593 206.124ZM828.036 203.752L833.313 207.645C833.674 207.078 833.905 206.485 834 205.866C834.106 205.247 834.053 204.667 833.834 204.112C833.627 203.565 833.225 203.068 832.627 202.617C832.071 202.204 831.497 202.011 830.9 202.024C830.314 202.024 829.77 202.179 829.267 202.488C828.776 202.797 828.368 203.223 828.036 203.752Z" fill="#404040"/>
<path d="M838.942 224.65C838.043 223.98 837.273 223.168 836.646 222.227C836.013 221.279 835.617 220.248 835.463 219.132C835.321 217.998 835.51 216.825 836.031 215.6L839.202 217.946C838.995 218.533 838.948 219.074 839.06 219.571C839.167 220.087 839.374 220.538 839.675 220.937C839.971 221.331 840.279 221.646 840.598 221.891C841.308 222.407 841.953 222.697 842.539 222.768C843.119 222.852 843.562 222.646 843.864 222.149C844.113 221.75 844.178 221.35 844.053 220.937C843.923 220.525 843.616 220.035 843.13 219.468L841.166 217.302C840.172 216.206 839.522 215.078 839.226 213.924C838.942 212.777 839.155 211.616 839.865 210.443C840.397 209.605 841.078 208.993 841.9 208.612C842.734 208.238 843.681 208.161 844.74 208.38C845.793 208.587 846.905 209.122 848.076 209.979C849.686 211.165 850.727 212.499 851.2 213.976C851.673 215.439 851.472 216.876 850.608 218.282L847.556 216.013C847.804 215.394 847.822 214.794 847.603 214.208C847.378 213.608 846.964 213.086 846.349 212.635C845.734 212.171 845.142 211.913 844.574 211.861C844.006 211.797 843.562 212.016 843.249 212.532C843.012 212.893 842.994 213.305 843.201 213.769C843.42 214.221 843.823 214.788 844.408 215.471L846.23 217.534C846.81 218.275 847.23 218.971 847.485 219.622C847.733 220.293 847.863 220.912 847.863 221.479C847.875 222.059 847.804 222.588 847.65 223.052C847.508 223.516 847.343 223.909 847.153 224.238C846.55 225.166 845.816 225.791 844.953 226.12C844.083 226.442 843.13 226.481 842.089 226.223C841.06 225.965 840.013 225.437 838.942 224.65Z" fill="#404040"/>
<path d="M853.962 226.366C853.489 227.088 853.193 227.797 853.086 228.48C852.974 229.151 853.039 229.782 853.276 230.388C853.512 230.988 853.915 231.503 854.483 231.935C855.11 232.399 855.76 232.657 856.423 232.709C857.086 232.773 857.707 232.541 858.293 232.013L861.582 234.436C860.825 235.326 859.925 235.913 858.884 236.19C857.855 236.461 856.808 236.48 855.737 236.241C854.678 236.016 853.702 235.571 852.802 234.901C851.507 233.953 850.554 232.818 849.939 231.497C849.335 230.188 849.099 228.809 849.229 227.346C849.371 225.87 849.892 224.406 850.791 222.962C851.672 221.557 852.714 220.461 853.915 219.688C855.11 218.901 856.382 218.527 857.725 218.579C859.079 218.618 860.41 219.114 861.724 220.074C863.049 221.054 863.972 222.182 864.493 223.452C865.013 224.729 865.161 226.076 864.942 227.5C864.735 228.912 864.191 230.317 863.309 231.729L862.647 232.812L853.962 226.366ZM855.405 223.994L860.683 227.887C861.044 227.32 861.274 226.727 861.369 226.108C861.475 225.489 861.422 224.909 861.203 224.355C860.996 223.807 860.594 223.31 859.996 222.859C859.44 222.447 858.866 222.253 858.269 222.266C857.683 222.266 857.139 222.421 856.636 222.73C856.145 223.04 855.737 223.465 855.405 223.994Z" fill="#404040"/>
<path d="M828.881 495.366C827.805 495.366 826.752 495.217 825.71 494.927C824.669 494.618 823.711 494.173 822.847 493.586C821.995 492.987 821.285 492.239 820.717 491.343C820.161 490.454 819.83 489.409 819.723 488.223H824.243C824.397 488.945 824.693 489.558 825.119 490.054C825.545 490.557 826.077 490.931 826.728 491.188C827.373 491.446 828.089 491.575 828.881 491.575C829.686 491.575 830.42 491.472 831.082 491.266C831.745 491.047 832.271 490.711 832.668 490.26C833.076 489.815 833.283 489.255 833.283 488.584C833.283 487.985 833.117 487.495 832.786 487.114C832.467 486.721 832.029 486.405 831.461 486.16C830.905 485.922 830.283 485.722 829.591 485.567L825.805 484.716C824.148 484.375 822.829 483.659 821.853 482.576C820.889 481.481 820.392 480.017 820.362 478.193C820.344 476.697 820.705 475.402 821.451 474.299C822.19 473.204 823.202 472.359 824.48 471.773C825.758 471.173 827.189 470.87 828.787 470.87C830.662 470.87 832.248 471.199 833.543 471.85C834.833 472.488 835.815 473.358 836.478 474.454C837.152 475.537 837.501 476.749 837.519 478.09H833.07C832.987 477.265 832.762 476.607 832.384 476.104C832.005 475.608 831.514 475.254 830.916 475.047C830.313 474.828 829.627 474.712 828.858 474.712C828.272 474.712 827.734 474.783 827.248 474.918C826.775 475.06 826.373 475.254 826.042 475.511C825.71 475.769 825.45 476.079 825.261 476.44C825.083 476.788 825 477.181 825 477.626C825 478.315 825.201 478.876 825.616 479.302C826.042 479.734 826.834 480.088 828.006 480.359L831.768 481.21C833.105 481.487 834.17 481.906 834.963 482.473C835.75 483.04 836.342 483.679 836.738 484.381C837.146 485.09 837.412 485.812 837.543 486.547C837.667 487.269 837.732 487.933 837.732 488.533C837.732 489.822 837.359 490.982 836.62 492.014C835.874 493.045 834.845 493.864 833.52 494.463C832.194 495.063 830.644 495.366 828.881 495.366Z" fill="#404040"/>
<path d="M844.744 487.604C844.726 488.481 844.845 489.241 845.099 489.873C845.365 490.511 845.75 491.008 846.259 491.369C846.762 491.717 847.359 491.884 848.057 491.884C848.814 491.884 849.477 491.717 850.045 491.369C850.625 491.008 851.027 490.428 851.252 489.615H855.228C855.05 490.821 854.612 491.852 853.902 492.71C853.192 493.573 852.329 494.231 851.323 494.695C850.311 495.14 849.264 495.365 848.176 495.365C846.625 495.365 845.265 495.017 844.082 494.308C842.91 493.586 841.999 492.581 841.336 491.291C840.686 489.989 840.366 488.455 840.366 486.702C840.366 485 840.656 483.466 841.242 482.086C841.839 480.713 842.709 479.63 843.845 478.837C844.981 478.032 846.342 477.625 847.939 477.625C849.53 477.625 850.873 477.999 851.962 478.734C853.05 479.476 853.867 480.5 854.423 481.803C854.973 483.092 855.251 484.587 855.251 486.289V487.604H844.744ZM844.72 484.742H851.11C851.11 484.059 850.992 483.427 850.755 482.86C850.53 482.28 850.187 481.822 849.714 481.493C849.24 481.171 848.649 481.003 847.939 481.003C847.259 481.003 846.673 481.184 846.188 481.545C845.714 481.906 845.348 482.37 845.099 482.937C844.845 483.504 844.72 484.11 844.72 484.742Z" fill="#404040"/>
<path d="M871.778 477.961L865.909 495.031H862.715L856.822 477.961H860.822L864.229 488.843H864.348L867.732 477.961H871.778Z" fill="#404040"/>
<path d="M877.703 487.604C877.685 488.481 877.803 489.241 878.058 489.873C878.324 490.511 878.708 491.008 879.217 491.369C879.72 491.717 880.318 491.884 881.016 491.884C881.773 491.884 882.436 491.717 883.004 491.369C883.583 491.008 883.986 490.428 884.21 489.615H888.186C888.009 490.821 887.571 491.852 886.861 492.71C886.151 493.573 885.287 494.231 884.281 494.695C883.27 495.14 882.223 495.365 881.134 495.365C879.584 495.365 878.223 495.017 877.04 494.308C875.869 493.586 874.958 492.581 874.295 491.291C873.644 489.989 873.325 488.455 873.325 486.702C873.325 485 873.615 483.466 874.2 482.086C874.798 480.713 875.667 479.63 876.803 478.837C877.939 478.032 879.3 477.625 880.897 477.625C882.489 477.625 883.832 477.999 884.92 478.734C886.009 479.476 886.825 480.5 887.381 481.803C887.932 483.092 888.21 484.587 888.21 486.289V487.604H877.703ZM877.679 484.742H884.068C884.068 484.059 883.95 483.427 883.713 482.86C883.489 482.28 883.146 481.822 882.672 481.493C882.199 481.171 881.607 481.003 880.897 481.003C880.217 481.003 879.631 481.184 879.146 481.545C878.673 481.906 878.306 482.37 878.058 482.937C877.803 483.504 877.679 484.11 877.679 484.742Z" fill="#404040"/>
<path d="M891.271 495.03V477.961H895.531V482.009C895.78 481.132 896.135 480.372 896.596 479.714C897.052 479.063 897.602 478.554 898.253 478.193C898.915 477.819 899.661 477.625 900.501 477.625C900.643 477.625 900.773 477.638 900.903 477.651C901.027 477.671 901.122 477.696 901.187 477.729V482.318C901.092 482.286 900.98 482.26 900.856 482.241C900.725 482.228 900.607 482.215 900.501 482.215C899.631 482.131 898.891 482.157 898.276 482.293C897.661 482.434 897.164 482.666 896.785 482.989C896.407 483.298 896.129 483.685 895.957 484.149C895.78 484.6 895.697 485.116 895.697 485.696V495.03H891.271Z" fill="#404040"/>
<path d="M907.224 487.604C907.206 488.481 907.325 489.241 907.579 489.873C907.845 490.511 908.23 491.008 908.739 491.369C909.242 491.717 909.839 491.884 910.537 491.884C911.294 491.884 911.957 491.717 912.525 491.369C913.105 491.008 913.507 490.428 913.732 489.615H917.708C917.53 490.821 917.092 491.852 916.382 492.71C915.672 493.573 914.809 494.231 913.803 494.695C912.791 495.14 911.744 495.365 910.655 495.365C909.105 495.365 907.745 495.017 906.562 494.308C905.39 493.586 904.479 492.581 903.816 491.291C903.166 489.989 902.846 488.455 902.846 486.702C902.846 485 903.136 483.466 903.722 482.086C904.319 480.713 905.189 479.63 906.325 478.837C907.461 478.032 908.821 477.625 910.419 477.625C912.01 477.625 913.353 477.999 914.442 478.734C915.53 479.476 916.347 480.5 916.903 481.803C917.453 483.092 917.731 484.587 917.731 486.289V487.604H907.224ZM907.2 484.742H913.59C913.59 484.059 913.472 483.427 913.235 482.86C913.01 482.28 912.667 481.822 912.194 481.493C911.72 481.171 911.129 481.003 910.419 481.003C909.738 481.003 909.153 481.184 908.668 481.545C908.194 481.906 907.828 482.37 907.579 482.937C907.325 483.504 907.2 484.11 907.2 484.742Z" fill="#404040"/>
<path d="M925.787 495.34C924.634 495.34 923.717 495.192 923.042 494.902C922.362 494.592 921.865 494.199 921.551 493.715C921.232 493.219 921.031 492.671 920.936 492.065C920.841 491.466 920.794 490.853 920.794 490.235V470.509H925.125V489.641C925.125 490.28 925.243 490.795 925.48 491.189C925.728 491.569 926.201 491.801 926.899 491.885L927.633 491.936V494.927C927.331 495.03 927.024 495.121 926.71 495.211C926.391 495.295 926.083 495.34 925.787 495.34Z" fill="#404040"/>
<path d="M933.072 500.471C931.995 500.471 931.238 500.375 930.8 500.188C930.374 499.994 930.161 499.904 930.161 499.904V496.836L931.699 496.887C932.374 496.939 932.918 496.9 933.332 496.784C933.74 496.662 934.054 496.507 934.279 496.32C934.498 496.146 934.646 495.959 934.728 495.753C934.823 495.547 934.894 495.379 934.941 495.263L935.225 494.309L929.144 477.961H933.522L937.261 489.1L941.07 477.961H945.377L939.035 495.134C938.497 496.578 937.923 497.687 937.308 498.46C936.704 499.234 936.054 499.756 935.344 500.033C934.646 500.323 933.888 500.471 933.072 500.471Z" fill="#404040"/>
<path d="M960.806 495.365C959.273 495.365 957.942 495.017 956.806 494.308C955.67 493.586 954.783 492.574 954.156 491.266C953.541 489.944 953.233 488.391 953.233 486.599C953.233 484.813 953.541 483.247 954.156 481.906C954.783 480.552 955.67 479.501 956.806 478.76C957.942 478.006 959.279 477.625 960.829 477.625C962.373 477.625 963.704 477.999 964.829 478.734C965.964 479.476 966.84 480.513 967.455 481.854C968.071 483.195 968.378 484.781 968.378 486.599C968.378 488.32 968.077 489.841 967.479 491.162C966.876 492.471 966.012 493.502 964.876 494.257C963.752 494.998 962.397 495.365 960.806 495.365ZM960.829 491.781C961.598 491.781 962.225 491.536 962.699 491.034C963.172 490.537 963.515 489.886 963.74 489.074C963.959 488.268 964.071 487.391 964.071 486.444C964.071 485.535 963.965 484.684 963.764 483.891C963.574 483.085 963.243 482.434 962.77 481.932C962.296 481.435 961.646 481.184 960.829 481.184C960.054 481.184 959.421 481.416 958.936 481.88C958.463 482.344 958.114 482.982 957.895 483.788C957.67 484.581 957.564 485.464 957.564 486.444C957.564 487.321 957.658 488.171 957.848 488.997C958.049 489.822 958.392 490.492 958.865 491.008C959.338 491.523 959.989 491.781 960.829 491.781Z" fill="#404040"/>
<path d="M980.046 495.366C979.253 495.366 978.578 495.25 978.011 495.03C977.454 494.811 976.981 494.515 976.591 494.154C976.194 493.78 975.869 493.367 975.62 492.916C975.366 492.471 975.171 492.007 975.029 491.524L974.532 495.03H971.313V470.509H975.762V480.282C975.952 479.921 976.194 479.585 976.496 479.276C976.792 478.954 977.141 478.67 977.537 478.425C977.945 478.167 978.395 477.974 978.886 477.832C979.371 477.697 979.904 477.626 980.472 477.626C982.412 477.626 983.933 478.393 985.039 479.921C986.139 481.455 986.695 483.608 986.695 486.393C986.695 488.198 986.441 489.77 985.938 491.111C985.429 492.452 984.684 493.503 983.69 494.257C982.708 494.998 981.495 495.366 980.046 495.366ZM979.075 491.885C980.022 491.885 980.809 491.466 981.442 490.621C982.069 489.764 982.388 488.339 982.388 486.341C982.388 484.575 982.087 483.266 981.489 482.422C980.886 481.564 980.069 481.133 979.028 481.133C978.3 481.133 977.691 481.326 977.206 481.7C976.715 482.08 976.354 482.654 976.117 483.427C975.881 484.201 975.762 485.174 975.762 486.341C975.762 488.352 976.029 489.783 976.567 490.621C977.117 491.466 977.951 491.885 979.075 491.885Z" fill="#404040"/>
<path d="M993.276 487.604C993.259 488.481 993.377 489.241 993.631 489.873C993.898 490.511 994.282 491.008 994.791 491.369C995.294 491.717 995.891 491.884 996.589 491.884C997.347 491.884 998.009 491.717 998.577 491.369C999.157 491.008 999.559 490.428 999.784 489.615H1003.76C1003.58 490.821 1003.14 491.852 1002.43 492.71C1001.72 493.573 1000.86 494.231 999.855 494.695C998.843 495.14 997.796 495.365 996.708 495.365C995.158 495.365 993.797 495.017 992.614 494.308C991.442 493.586 990.531 492.581 989.869 491.291C989.218 489.989 988.898 488.455 988.898 486.702C988.898 485 989.188 483.466 989.774 482.086C990.372 480.713 991.241 479.63 992.377 478.837C993.513 478.032 994.874 477.625 996.471 477.625C998.063 477.625 999.406 477.999 1000.49 478.734C1001.58 479.476 1002.4 480.5 1002.96 481.803C1003.51 483.092 1003.78 484.587 1003.78 486.289V487.604H993.276ZM993.253 484.742H999.642C999.642 484.059 999.524 483.427 999.287 482.86C999.062 482.28 998.719 481.822 998.246 481.493C997.773 481.171 997.181 481.003 996.471 481.003C995.791 481.003 995.205 481.184 994.72 481.545C994.247 481.906 993.88 482.37 993.631 482.937C993.377 483.504 993.253 484.11 993.253 484.742Z" fill="#404040"/>
<path d="M1013.05 495.365C1011.96 495.365 1010.9 495.166 1009.9 494.772C1008.89 494.379 1008.03 493.76 1007.32 492.916C1006.62 492.078 1006.18 490.982 1005.99 489.641H1009.83C1009.95 490.26 1010.19 490.75 1010.54 491.111C1010.9 491.459 1011.3 491.704 1011.74 491.859C1012.18 492 1012.6 492.065 1013 492.065C1013.85 492.065 1014.54 491.923 1015.06 491.627C1015.58 491.336 1015.84 490.892 1015.84 490.286C1015.84 489.822 1015.68 489.454 1015.36 489.177C1015.06 488.906 1014.56 488.687 1013.85 488.532L1011.11 487.914C1009.71 487.604 1008.6 487.076 1007.77 486.315C1006.93 485.541 1006.5 484.452 1006.49 483.04C1006.49 482.009 1006.73 481.094 1007.22 480.281C1007.73 479.456 1008.47 478.812 1009.45 478.347C1010.42 477.87 1011.63 477.625 1013.05 477.625C1014.99 477.625 1016.53 478.09 1017.68 479.018C1018.83 479.946 1019.42 481.255 1019.44 482.937H1015.74C1015.63 482.267 1015.33 481.764 1014.84 481.416C1014.35 481.055 1013.74 480.874 1013 480.874C1012.24 480.874 1011.61 481.023 1011.11 481.313C1010.61 481.609 1010.37 482.06 1010.37 482.679C1010.37 483.131 1010.57 483.479 1010.96 483.736C1011.37 483.994 1012 484.22 1012.86 484.407L1015.41 485.026C1016.28 485.271 1016.99 485.587 1017.54 485.98C1018.09 486.379 1018.52 486.818 1018.82 487.295C1019.12 487.759 1019.32 488.236 1019.44 488.713C1019.56 489.196 1019.62 489.628 1019.62 490.002C1019.62 491.137 1019.35 492.11 1018.8 492.916C1018.24 493.709 1017.47 494.321 1016.48 494.747C1015.48 495.159 1014.34 495.365 1013.05 495.365Z" fill="#404040"/>
<path d="M1026.36 487.604C1026.34 488.481 1026.46 489.241 1026.71 489.873C1026.98 490.511 1027.36 491.008 1027.87 491.369C1028.37 491.717 1028.97 491.884 1029.67 491.884C1030.43 491.884 1031.09 491.717 1031.66 491.369C1032.24 491.008 1032.64 490.428 1032.86 489.615H1036.84C1036.66 490.821 1036.22 491.852 1035.51 492.71C1034.8 493.573 1033.94 494.231 1032.93 494.695C1031.92 495.14 1030.88 495.365 1029.79 495.365C1028.24 495.365 1026.88 495.017 1025.69 494.308C1024.52 493.586 1023.61 492.581 1022.95 491.291C1022.3 489.989 1021.98 488.455 1021.98 486.702C1021.98 485 1022.27 483.466 1022.85 482.086C1023.45 480.713 1024.32 479.63 1025.46 478.837C1026.59 478.032 1027.95 477.625 1029.55 477.625C1031.14 477.625 1032.49 477.999 1033.57 478.734C1034.66 479.476 1035.48 480.5 1036.03 481.803C1036.58 483.092 1036.86 484.587 1036.86 486.289V487.604H1026.36ZM1026.33 484.742H1032.72C1032.72 484.059 1032.6 483.427 1032.37 482.86C1032.14 482.28 1031.8 481.822 1031.33 481.493C1030.85 481.171 1030.26 481.003 1029.55 481.003C1028.87 481.003 1028.28 481.184 1027.8 481.545C1027.33 481.906 1026.96 482.37 1026.71 482.937C1026.46 483.504 1026.33 484.11 1026.33 484.742Z" fill="#404040"/>
<path d="M23.3806 512.037L0 505.694L2.10615 496.463C2.86341 493.13 3.95198 490.803 5.37186 489.475C6.79173 488.154 8.49558 487.761 10.4834 488.289C11.6548 488.618 12.5896 489.217 13.2995 490.094C14.0094 490.971 14.4945 492.324 14.743 494.142C15.2518 493.15 15.7843 492.376 16.3522 491.822C16.9083 491.274 17.4822 490.893 18.0797 490.687C18.6654 490.468 19.257 490.371 19.8546 490.404C20.4403 490.442 21.0023 490.526 21.5348 490.661C23.6941 491.248 25.1081 492.479 25.7707 494.349C26.4452 496.224 26.386 498.906 25.5814 502.393L23.3806 512.037ZM20.8958 505.926L21.9607 501.31C22.3098 499.763 22.2861 498.519 21.8897 497.572C21.4993 496.611 20.8248 495.999 19.8782 495.741C19.1861 495.554 18.5649 495.586 18.0087 495.844C17.4408 496.089 16.9675 496.514 16.5889 497.133C16.1984 497.739 15.9026 498.461 15.7133 499.299L14.5774 504.198L20.8958 505.926ZM10.8384 503.193L11.9743 498.294C12.0867 497.765 12.1399 497.236 12.1399 496.721C12.1281 496.205 12.0453 495.728 11.9033 495.277C11.7613 494.813 11.5365 494.426 11.217 494.117C10.9035 493.794 10.4952 493.562 9.98645 493.42C8.96296 493.15 8.09328 493.356 7.38335 494.039C6.67341 494.71 6.17054 495.702 5.86881 497.004L4.82757 501.543L10.8384 503.193Z" fill="#404040"/>
<path d="M28.8991 487.928L5.51855 481.585L7.2224 474.108L25.2311 472.793L9.8965 462.402L11.6003 454.976L34.9809 461.319L33.7977 466.501L15.9073 461.628L32.4015 472.638L31.4786 476.66L12.2866 477.924L30.0824 482.771L28.8991 487.928Z" fill="#404040"/>
<path d="M12.9155 449.272L14.0751 444.141L37.4557 450.484L36.2961 455.615L12.9155 449.272Z" fill="#404040"/>
<path d="M34.8943 427.354L38.9409 428.463L29.4515 443.109L25.5468 442.052L23.417 424.234L27.4873 425.343L28.8125 436.92L34.8943 427.354Z" fill="#404040"/>
<path d="M44.1646 421.248L26.6765 416.503L25.6352 421.041L22.9375 420.294C23.2688 418.837 23.4107 417.625 23.3634 416.658C23.3161 415.698 23.1149 414.93 22.7481 414.363C22.3695 413.783 21.8489 413.358 21.1863 413.1L21.9672 409.67L45.3478 416.013L44.1646 421.248Z" fill="#404040"/>
<path d="M25.2287 393.978C25.6429 392.224 26.2581 390.729 27.0746 389.491C27.8969 388.254 28.8908 387.371 30.0563 386.835C31.21 386.307 32.4878 386.23 33.89 386.603C35.1087 386.952 36.0553 387.596 36.7297 388.537C37.3923 389.466 37.836 390.516 38.0549 391.683C38.3744 390.961 38.895 390.31 39.6168 389.723C40.3445 389.124 41.1668 388.686 42.0779 388.408C42.9949 388.138 43.9001 388.125 44.7993 388.383C46.2074 388.763 47.3137 389.517 48.136 390.652C48.9525 391.773 49.4672 393.179 49.6742 394.88C49.8754 396.582 49.7452 398.464 49.2719 400.527C48.7986 402.577 48.1005 404.292 47.1895 405.684C46.2902 407.064 45.2371 408.043 44.0184 408.624C42.8056 409.21 41.4981 409.313 40.0901 408.933C39.1908 408.675 38.3981 408.205 37.7 407.515C37.0078 406.812 36.4694 406.019 36.0908 405.143C35.7003 404.253 35.5228 403.383 35.5702 402.538C34.878 403.467 34.032 404.182 33.038 404.678C32.0323 405.181 30.9201 405.259 29.7013 404.911C28.2992 404.537 27.2047 403.815 26.412 402.745C25.6074 401.681 25.1104 400.392 24.9211 398.877C24.7318 397.349 24.8383 395.718 25.2287 393.978ZM34.9549 396.634C35.227 395.467 35.1619 394.429 34.7656 393.514C34.3573 392.605 33.6415 392.012 32.6121 391.735C31.6063 391.464 30.7189 391.625 29.9617 392.224C29.2044 392.83 28.6956 393.707 28.4235 394.855C28.175 396.008 28.2519 397.046 28.6601 397.974C29.0565 398.903 29.7605 399.509 30.7662 399.779C31.7957 400.057 32.6831 399.895 33.4403 399.289C34.1976 398.671 34.7064 397.788 34.9549 396.634ZM45.6986 399.547C46.0476 398.052 46.0181 396.801 45.6039 395.783C45.178 394.771 44.4562 394.12 43.4268 393.823C42.7346 393.636 42.0779 393.668 41.4626 393.926C40.8474 394.171 40.3149 394.61 39.8534 395.241C39.3801 395.86 39.0252 396.672 38.7885 397.665C38.5696 398.645 38.5282 399.541 38.6702 400.347C38.8122 401.159 39.108 401.816 39.5458 402.332C39.9718 402.848 40.5338 403.202 41.226 403.389C42.2554 403.686 43.1783 403.486 43.9947 402.796C44.7993 402.094 45.3673 401.011 45.6986 399.547Z" fill="#404040"/>
<path d="M100.763 275.023L86.1853 263.446L83.6532 267.236L81.4287 265.457C82.2333 264.239 82.7894 263.175 83.0852 262.26C83.3692 261.351 83.4402 260.552 83.2982 259.862C83.1444 259.179 82.8013 258.586 82.2806 258.083L84.1975 255.221L103.673 270.666L100.763 275.023Z" fill="#404040"/>
<path d="M92.6177 242.019C93.5998 240.562 94.6765 239.428 95.8597 238.615C97.043 237.79 98.2676 237.378 99.5278 237.378C100.794 237.365 102.007 237.816 103.172 238.744C104.184 239.537 104.84 240.511 105.136 241.658C105.438 242.792 105.485 243.953 105.278 245.139C105.828 244.591 106.544 244.185 107.432 243.927C108.313 243.669 109.218 243.611 110.153 243.747C111.082 243.869 111.928 244.23 112.685 244.829C113.851 245.758 114.614 246.918 114.981 248.31C115.359 249.69 115.348 251.198 114.957 252.849C114.561 254.499 113.786 256.194 112.638 257.928C111.502 259.63 110.271 260.938 108.946 261.847C107.621 262.763 106.302 263.24 104.994 263.291C103.669 263.33 102.427 262.879 101.255 261.95C100.498 261.351 99.9241 260.584 99.5278 259.656C99.1373 258.715 98.9066 257.76 98.8415 256.794C98.7823 255.814 98.9125 254.937 99.2438 254.164C98.2854 254.731 97.25 255.04 96.1437 255.092C95.0433 255.143 93.9843 254.776 92.9727 253.983C91.8072 253.055 91.044 251.94 90.6772 250.631C90.2986 249.31 90.2927 247.911 90.6535 246.428C91.0026 244.933 91.6593 243.463 92.6177 242.019ZM100.735 248.465C101.385 247.485 101.681 246.493 101.634 245.474C101.575 244.462 101.113 243.611 100.261 242.921C99.4094 242.251 98.5279 242.045 97.6109 242.303C96.6998 242.56 95.9189 243.173 95.2681 244.133C94.6233 245.081 94.3334 246.067 94.3925 247.099C94.4576 248.13 94.9132 248.981 95.7651 249.651C96.617 250.341 97.5044 250.554 98.4155 250.296C99.3148 250.025 100.09 249.413 100.735 248.465ZM109.68 255.582C110.514 254.331 110.91 253.145 110.863 252.023C110.816 250.889 110.366 249.98 109.514 249.29C108.946 248.845 108.331 248.613 107.668 248.594C107.018 248.581 106.373 248.768 105.728 249.161C105.083 249.542 104.485 250.154 103.929 250.992C103.379 251.804 103.03 252.61 102.888 253.416C102.746 254.228 102.788 254.963 103.006 255.633C103.214 256.291 103.598 256.839 104.166 257.283C105.018 257.973 105.941 258.173 106.935 257.877C107.941 257.567 108.858 256.806 109.68 255.582Z" fill="#404040"/>
<path d="M119.909 246.365L115.626 242.961L118.773 238.294L123.057 241.698L119.909 246.365Z" fill="#404040"/>
<path d="M107.093 220.977L116.204 207.362L119.328 210.018L112.583 220.1L117.009 224.277C117.121 223.162 117.328 222.182 117.624 221.338C117.926 220.48 118.358 219.629 118.926 218.785C119.872 217.36 120.973 216.284 122.215 215.562C123.463 214.827 124.771 214.505 126.143 214.608C127.516 214.698 128.876 215.278 130.237 216.361C131.61 217.463 132.562 218.746 133.101 220.203C133.651 221.666 133.775 223.233 133.479 224.896C133.195 226.565 132.485 228.241 131.349 229.924C130.415 231.316 129.362 232.451 128.178 233.327C127.007 234.204 125.788 234.81 124.51 235.132C123.232 235.461 122.002 235.493 120.819 235.236L121.221 230.465C122.091 230.556 122.937 230.556 123.753 230.465C124.558 230.382 125.303 230.143 126.001 229.743C126.711 229.331 127.35 228.706 127.918 227.861C128.77 226.591 129.137 225.328 129.03 224.071C128.918 222.801 128.368 221.769 127.374 220.977C126.741 220.461 126.06 220.177 125.339 220.126C124.611 220.074 123.913 220.248 123.232 220.641C122.54 221.022 121.919 221.615 121.363 222.421C121.079 222.872 120.842 223.31 120.653 223.736C120.452 224.167 120.316 224.657 120.251 225.205C120.174 225.74 120.132 226.385 120.132 227.139C120.103 227.333 120.073 227.449 120.038 227.5C120.008 227.552 119.914 227.629 119.754 227.732L116.346 229.769L107.093 220.977Z" fill="#404040"/>
<path d="M350.006 44.0189L349.367 41.5178L349.012 40.2286C348.68 38.9394 348.609 37.7662 348.799 36.6961C349 35.6325 349.373 34.6462 349.911 33.7309C350.443 32.8026 351.076 31.9453 351.804 31.1524C352.544 30.366 353.283 29.6053 354.029 28.8833C354.768 28.1485 355.437 27.433 356.04 26.7432C356.638 26.0406 357.081 25.338 357.365 24.6289C357.649 23.9069 357.685 23.1527 357.484 22.3598C357.212 21.3478 356.667 20.6194 355.851 20.1681C355.046 19.7233 354.082 19.6718 352.964 20.0134C351.81 20.3744 350.917 21.0577 350.29 22.0504C349.674 23.0302 349.45 24.2872 349.627 25.815L345.178 27.1816C344.788 25.57 344.752 24.0036 345.083 22.4887C345.403 20.9803 346.137 19.6395 347.284 18.4663C348.42 17.2802 349.994 16.3778 352.017 15.7589C353.733 15.2304 355.307 15.0885 356.726 15.3464C358.146 15.6042 359.341 16.1973 360.323 17.1255C361.317 18.0538 362.01 19.285 362.406 20.8127C362.737 22.0697 362.796 23.2301 362.595 24.2937C362.406 25.3444 362.039 26.3049 361.507 27.1816C360.968 28.0453 360.347 28.8511 359.637 29.6053C358.927 30.366 358.205 31.075 357.484 31.7454C356.756 32.4158 356.093 33.0798 355.496 33.7309C354.892 34.3884 354.443 35.0588 354.147 35.7421C353.863 36.4125 353.822 37.1344 354.029 37.908L354.076 38.14L365.908 34.5044L367.021 38.7847L350.006 44.0189Z" fill="#404040"/>
<path d="M373.938 9.39716L378.576 7.979L382.552 23.3724L386.125 22.2637L387.238 26.544L383.664 27.6527L385.108 33.248L380.588 34.6146L379.144 29.0193L368.495 32.2939L367.407 28.1168L373.938 9.39716ZM371.714 26.6987L378.032 24.739L375.642 15.4823L371.714 26.6987Z" fill="#404040"/>
<path d="M391.161 31.3714L389.718 25.8019L394.853 24.229L396.297 29.7985L391.161 31.3714Z" fill="#404040"/>
<path d="M408.25 26.5236C406.795 26.9555 405.363 27.0651 403.943 26.8588C402.535 26.6397 401.299 26.0982 400.228 25.2344C399.151 24.3771 398.382 23.2361 397.909 21.805L402.358 20.4385C402.813 21.3538 403.446 22.0113 404.251 22.4239C405.067 22.8364 405.984 22.888 406.996 22.5786C408.114 22.2369 409.013 21.6503 409.694 20.8252C410.386 19.9872 410.782 18.8785 410.877 17.499C410.983 16.126 410.711 14.4435 410.049 12.4452C409.936 13.1672 409.67 13.8376 409.244 14.4564C408.83 15.0752 408.303 15.6296 407.658 16.1066C407.025 16.5901 406.274 16.9575 405.41 17.2154C403.831 17.6988 402.346 17.802 400.961 17.5248C399.589 17.254 398.406 16.6223 397.412 15.6425C396.418 14.6498 395.708 13.3348 395.282 11.6975C394.856 10.0472 394.844 8.46793 395.235 6.95308C395.631 5.42534 396.388 4.10387 397.506 2.98224C398.607 1.84771 400.038 1.00971 401.79 0.455343C403.742 -0.14415 405.564 -0.150596 407.256 0.429558C408.942 0.99682 410.409 2.10556 411.658 3.75578C412.918 5.39311 413.87 7.46877 414.521 9.99567C415.308 13.006 415.562 15.6361 415.278 17.8858C415.006 20.1419 414.273 21.9855 413.078 23.4295C411.894 24.8605 410.285 25.8919 408.25 26.5236ZM405.15 12.9093C405.795 12.7031 406.386 12.355 406.925 11.8522C407.457 11.3365 407.86 10.7821 408.132 10.1762C408.398 9.55733 408.463 8.99007 408.321 8.47437C408.049 7.32696 407.641 6.40515 407.091 5.71541C406.534 5.01278 405.907 4.54221 405.197 4.29726C404.487 4.03941 403.73 4.03941 402.926 4.29726C402.198 4.52287 401.588 4.90964 401.103 5.45757C400.612 6.01194 400.287 6.66945 400.133 7.44299C399.973 8.20363 400.015 9.02874 400.251 9.91831C400.583 11.2269 401.198 12.1358 402.097 12.6515C402.997 13.1672 404.014 13.2574 405.15 12.9093Z" fill="#404040"/>
<path d="M709.098 28.8921L709.879 26.4425L710.281 25.1533C710.671 23.9028 711.227 22.8972 711.937 22.1365C712.659 21.3823 713.482 20.7957 714.399 20.3831C715.327 19.9577 716.298 19.6483 717.309 19.4549C718.315 19.268 719.321 19.1068 720.315 18.965C721.32 18.8103 722.255 18.6427 723.107 18.4493C723.959 18.243 724.681 17.9465 725.284 17.5468C725.899 17.1343 726.331 16.5412 726.586 15.7677C726.899 14.775 726.834 13.8338 726.396 12.9572C725.953 12.0805 725.178 11.4359 724.077 11.0233C722.941 10.5979 721.859 10.5979 720.835 11.0233C719.806 11.4359 718.972 12.3319 718.327 13.7049L713.949 12.0547C714.47 10.4947 715.256 9.1926 716.315 8.16122C717.368 7.11694 718.67 6.45943 720.22 6.20158C721.764 5.93084 723.533 6.16935 725.521 6.92355C727.225 7.56172 728.585 8.43195 729.615 9.5278C730.656 10.6108 731.331 11.842 731.65 13.215C731.981 14.5945 731.91 16.0384 731.437 17.5468C731.041 18.7716 730.49 19.7579 729.78 20.5121C729.071 21.2727 728.266 21.84 727.367 22.2139C726.467 22.5748 725.527 22.852 724.551 23.039C723.569 23.213 722.598 23.3484 721.64 23.4515C720.693 23.5418 719.8 23.6707 718.966 23.8383C718.143 24.0123 717.433 24.2895 716.836 24.6634C716.25 25.0437 715.83 25.611 715.582 26.3652L715.511 26.5715L727.13 30.9549L725.805 35.1835L709.098 28.8921Z" fill="#404040"/>
<path d="M736.93 39.7591C735.51 39.2241 734.279 38.4248 733.238 37.3611C732.197 36.3104 731.451 35.105 731.014 33.7255C730.588 32.3525 730.546 30.9279 730.895 29.4453L735.297 31.0955C735.184 32.1269 735.356 33.0744 735.817 33.9318C736.273 34.7762 737.001 35.3757 737.995 35.7367C739.095 36.1493 740.148 36.2266 741.142 35.9688C742.136 35.7303 743.035 35.0792 743.84 34.0091C744.656 32.9262 745.307 31.3791 745.78 29.3679C745.307 29.8707 744.739 30.2446 744.076 30.5024C743.414 30.7603 742.692 30.8828 741.923 30.8634C741.148 30.8505 740.337 30.6829 739.485 30.3735C737.935 29.7933 736.669 28.9553 735.675 27.8724C734.693 26.7765 734.049 25.5131 733.735 24.082C733.433 22.6574 733.534 21.1426 734.043 19.5439C734.563 17.9131 735.374 16.598 736.48 15.5989C737.598 14.6062 738.906 13.9873 740.408 13.7424C741.923 13.4845 743.544 13.6844 745.283 14.3354C747.188 15.0574 748.691 16.1855 749.78 17.7132C750.868 19.2474 751.495 21.0652 751.673 23.1796C751.862 25.2939 751.56 27.6017 750.773 30.0899C749.827 33.0487 748.65 35.3693 747.247 37.0517C745.839 38.7342 744.272 39.7914 742.538 40.2232C740.799 40.668 738.929 40.5133 736.93 39.7591ZM741.521 26.6605C742.165 26.9055 742.834 26.9828 743.532 26.8926C744.242 26.8088 744.863 26.5961 745.402 26.248C745.952 25.9063 746.313 25.4873 746.49 24.9845C746.851 23.8887 746.987 22.8831 746.892 21.9677C746.81 21.0395 746.543 20.2595 746.088 19.6213C745.626 18.9702 745.005 18.4997 744.218 18.2031C743.508 17.9324 742.804 17.8679 742.112 18.0226C741.414 18.1645 740.799 18.5061 740.266 19.054C739.746 19.5891 739.343 20.2917 739.059 21.1684C738.645 22.4576 738.669 23.5921 739.13 24.572C739.604 25.5518 740.397 26.248 741.521 26.6605Z" fill="#404040"/>
<path d="M749.614 44.1285L751.342 38.6621L756.382 40.5444L754.655 46.0107L749.614 44.1285Z" fill="#404040"/>
<path d="M766.171 50.7469C764.751 50.2119 763.521 49.4126 762.48 48.3489C761.438 47.2982 760.693 46.0928 760.255 44.7133C759.829 43.3403 759.788 41.9157 760.137 40.433L764.539 42.0833C764.426 43.1147 764.598 44.0622 765.059 44.9196C765.515 45.764 766.242 46.3635 767.236 46.7245C768.337 47.1371 769.39 47.2144 770.384 46.9566C771.378 46.7181 772.277 46.067 773.081 44.9969C773.898 43.914 774.549 42.3669 775.022 40.3557C774.549 40.8585 773.981 41.2324 773.318 41.4902C772.655 41.7481 771.934 41.8705 771.165 41.8512C770.39 41.8383 769.579 41.6707 768.727 41.3613C767.177 40.7811 765.911 39.9431 764.917 38.8602C763.935 37.7643 763.29 36.5009 762.977 35.0698C762.675 33.6452 762.775 32.1304 763.284 30.5317C763.805 28.9009 764.615 27.5858 765.722 26.5867C766.84 25.594 768.147 24.9751 769.65 24.7302C771.165 24.4723 772.786 24.6722 774.525 25.3232C776.43 26.0452 777.933 27.1733 779.021 28.701C780.11 30.2352 780.737 32.053 780.914 34.1674C781.104 36.2817 780.802 38.5894 780.015 41.0777C779.069 44.0365 777.891 46.3571 776.489 48.0395C775.081 49.722 773.513 50.7791 771.78 51.211C770.041 51.6558 768.171 51.5011 766.171 50.7469ZM770.762 37.6483C771.407 37.8933 772.076 37.9706 772.774 37.8804C773.484 37.7966 774.105 37.5838 774.643 37.2358C775.193 36.8941 775.554 36.4751 775.732 35.9723C776.093 34.8765 776.229 33.8709 776.134 32.9555C776.051 32.0272 775.785 31.2473 775.33 30.6091C774.868 29.958 774.247 29.4875 773.46 29.1909C772.75 28.9202 772.046 28.8557 771.354 29.0104C770.656 29.1523 770.041 29.4939 769.508 30.0418C768.987 30.5769 768.585 31.2795 768.301 32.1562C767.887 33.4454 767.911 34.5799 768.372 35.5597C768.845 36.5396 769.638 37.2358 770.762 37.6483Z" fill="#404040"/>
<path d="M978.031 208.623C979.385 207.456 980.764 206.831 982.172 206.741C983.574 206.657 984.929 207.018 986.242 207.824C987.568 208.617 988.757 209.732 989.816 211.176C990.952 212.71 991.768 214.238 992.277 215.765C992.78 217.28 992.904 218.692 992.655 220.02C992.419 221.341 991.721 222.508 990.573 223.527C989.656 224.313 988.632 224.726 987.497 224.764C986.361 224.797 985.095 224.339 983.71 223.398C984.071 224.307 984.29 225.261 984.373 226.26C984.45 227.253 984.325 228.2 983.994 229.096C983.675 230.005 983.095 230.83 982.243 231.571C981.308 232.358 980.332 232.841 979.309 233.015C978.279 233.183 977.238 233.08 976.185 232.706C975.144 232.345 974.126 231.739 973.132 230.901C972.15 230.076 971.227 229.077 970.363 227.91C969.162 226.26 968.381 224.642 968.021 223.063C967.672 221.477 967.719 219.981 968.163 218.576C968.618 217.151 969.476 215.882 970.742 214.76L973.653 218.756C972.736 219.904 972.292 221.038 972.328 222.16C972.375 223.275 972.759 224.326 973.487 225.306C974.102 226.144 974.741 226.776 975.404 227.188C976.078 227.601 976.741 227.788 977.392 227.755C978.037 227.736 978.622 227.504 979.143 227.059C979.675 226.595 980.007 226.015 980.137 225.332C980.279 224.661 980.243 223.926 980.042 223.14C979.835 222.366 979.456 221.593 978.906 220.819L977.534 218.808L980.563 216.178L981.959 217.854C982.509 218.576 983.101 219.105 983.734 219.453C984.361 219.794 984.976 219.949 985.58 219.917C986.177 219.897 986.716 219.685 987.189 219.272C987.644 218.873 987.928 218.383 988.041 217.777C988.165 217.177 988.118 216.513 987.899 215.791C987.674 215.069 987.307 214.347 986.787 213.625C986.313 212.994 985.775 212.484 985.177 212.104C984.574 211.73 983.923 211.563 983.213 211.614C982.503 211.666 981.746 211.994 980.941 212.594L978.031 208.623Z" fill="#404040"/>
<path d="M983.971 246.492C983.036 245.203 982.392 243.811 982.031 242.315C981.664 240.833 981.634 239.382 981.936 237.958C982.25 236.552 982.93 235.321 983.971 234.27L986.858 238.216C986.255 239.021 985.941 239.917 985.912 240.897C985.876 241.877 986.184 242.812 986.835 243.708C987.574 244.7 988.426 245.384 989.39 245.745C990.349 246.119 991.431 246.086 992.632 245.642C993.845 245.21 995.153 244.281 996.561 242.857C995.91 243.011 995.241 242.999 994.549 242.831C993.869 242.657 993.206 242.341 992.561 241.877C991.911 241.413 991.307 240.794 990.739 240.02C989.728 238.628 989.071 237.197 988.775 235.714C988.473 234.219 988.544 232.788 988.988 231.408C989.444 230.016 990.278 228.791 991.496 227.721C992.727 226.658 994.052 226.032 995.472 225.839C996.904 225.652 998.318 225.89 999.708 226.561C1001.11 227.218 1002.38 228.327 1003.52 229.887C1004.8 231.628 1005.51 233.458 1005.67 235.379C1005.83 237.307 1005.46 239.208 1004.56 241.103C1003.67 242.992 1002.29 244.752 1000.39 246.389C998.152 248.349 996.022 249.625 994.005 250.231C991.999 250.831 990.154 250.805 988.467 250.154C986.793 249.496 985.296 248.278 983.971 246.492ZM994.289 238.112C994.715 238.68 995.241 239.131 995.874 239.479C996.519 239.821 997.152 240.001 997.768 240.02C998.395 240.053 998.903 239.904 999.282 239.582C1000.15 238.841 1000.77 238.067 1001.15 237.261C1001.53 236.436 1001.68 235.624 1001.6 234.812C1001.54 234.006 1001.25 233.252 1000.73 232.543C1000.25 231.892 999.684 231.428 999.022 231.151C998.359 230.88 997.673 230.815 996.963 230.97C996.253 231.112 995.567 231.473 994.904 232.053C993.922 232.897 993.39 233.871 993.295 234.967C993.212 236.05 993.543 237.1 994.289 238.112Z" fill="#404040"/>
<path d="M992.556 257.581L996.697 253.971L1000.01 258.509L995.869 262.119L992.556 257.581Z" fill="#404040"/>
<path d="M1003.27 272.833C1002.33 271.544 1001.69 270.152 1001.33 268.656C1000.96 267.173 1000.93 265.723 1001.23 264.298C1001.55 262.893 1002.23 261.662 1003.27 260.611L1006.16 264.556C1005.55 265.362 1005.24 266.258 1005.21 267.238C1005.17 268.218 1005.48 269.152 1006.13 270.048C1006.87 271.041 1007.72 271.724 1008.69 272.085C1009.65 272.459 1010.73 272.427 1011.93 271.982C1013.14 271.55 1014.45 270.622 1015.86 269.198C1015.21 269.352 1014.54 269.339 1013.85 269.172C1013.17 268.998 1012.5 268.682 1011.86 268.218C1011.21 267.754 1010.6 267.135 1010.04 266.361C1009.02 264.969 1008.37 263.538 1008.07 262.055C1007.77 260.56 1007.84 259.129 1008.29 257.749C1008.74 256.357 1009.58 255.132 1010.79 254.062C1012.02 252.998 1013.35 252.373 1014.77 252.18C1016.2 251.993 1017.62 252.231 1019.01 252.902C1020.41 253.559 1021.68 254.668 1022.82 256.228C1024.09 257.968 1024.81 259.799 1024.97 261.72C1025.12 263.647 1024.76 265.549 1023.86 267.444C1022.97 269.333 1021.58 271.093 1019.69 272.73C1017.45 274.69 1015.32 275.966 1013.3 276.572C1011.3 277.171 1009.45 277.146 1007.76 276.495C1006.09 275.837 1004.59 274.619 1003.27 272.833ZM1013.59 264.453C1014.01 265.02 1014.54 265.472 1015.17 265.82C1015.82 266.161 1016.45 266.342 1017.06 266.361C1017.69 266.393 1018.2 266.245 1018.58 265.923C1019.44 265.182 1020.07 264.408 1020.45 263.602C1020.83 262.777 1020.98 261.965 1020.9 261.153C1020.83 260.347 1020.54 259.593 1020.02 258.884C1019.55 258.233 1018.98 257.769 1018.32 257.491C1017.66 257.221 1016.97 257.156 1016.26 257.311C1015.55 257.453 1014.86 257.814 1014.2 258.394C1013.22 259.238 1012.69 260.212 1012.59 261.307C1012.51 262.39 1012.84 263.441 1013.59 264.453Z" fill="#404040"/>
<path d="M1091.26 406.148L1092.35 411.254L1078.06 414.838L1078.89 418.783L1074.89 419.788L1074.06 415.843L1068.88 417.133L1067.81 412.156L1073 410.867L1070.53 399.083L1074.44 398.104L1091.26 406.148ZM1075.53 402.874L1076.99 409.861L1085.59 407.721L1075.53 402.874Z" fill="#404040"/>
<path d="M1096.13 427.526C1096.76 430.569 1096.21 433.231 1094.5 435.52C1092.79 437.802 1089.98 439.439 1086.07 440.419C1082.19 441.379 1079.03 441.25 1076.58 440.032C1074.15 438.807 1072.61 436.654 1071.97 433.56C1071.31 430.466 1071.83 427.784 1073.53 425.515C1075.23 423.259 1078.03 421.66 1081.91 420.694C1084.51 420.042 1086.79 419.894 1088.77 420.255C1090.74 420.603 1092.35 421.39 1093.6 422.627C1094.86 423.878 1095.7 425.515 1096.13 427.526ZM1075.85 432.606C1076.16 434.134 1077.01 435.094 1078.4 435.494C1079.81 435.887 1081.98 435.713 1084.91 434.978C1087.91 434.218 1089.98 433.315 1091.14 432.271C1092.28 431.22 1092.7 429.937 1092.39 428.429C1092.06 426.933 1091.16 425.979 1089.69 425.567C1088.24 425.154 1086.02 425.322 1083.04 426.083C1080.12 426.804 1078.11 427.688 1077.01 428.738C1075.9 429.783 1075.52 431.072 1075.85 432.606Z" fill="#404040"/>
<path d="M1087.63 468.864L1083.53 469.87L1085.9 452.13L1089.83 451.15L1099.13 465.976L1095.06 467.007L1089.05 457.312L1087.63 468.864Z" fill="#404040"/>
<path d="M1082.79 483.155L1106.27 477.276L1108.21 486.558C1108.92 489.91 1108.92 492.521 1108.21 494.397C1107.5 496.286 1106.14 497.478 1104.14 497.981C1102.97 498.271 1101.89 498.2 1100.89 497.775C1099.9 497.343 1098.91 496.369 1097.94 494.861C1097.89 496.008 1097.73 496.962 1097.46 497.723C1097.19 498.497 1096.83 499.122 1096.37 499.605C1095.93 500.082 1095.44 500.456 1094.91 500.714C1094.37 500.972 1093.83 501.165 1093.3 501.307C1091.13 501.855 1089.37 501.462 1088 500.121C1086.63 498.78 1085.57 496.357 1084.83 492.85L1082.79 483.155ZM1087.52 487.383L1088.52 492.025C1088.85 493.585 1089.38 494.693 1090.13 495.351C1090.87 496.002 1091.71 496.208 1092.66 495.97C1093.35 495.796 1093.9 495.461 1094.29 494.964C1094.7 494.461 1094.96 493.843 1095.05 493.108C1095.14 492.386 1095.1 491.593 1094.91 490.735L1093.87 485.811L1087.52 487.383ZM1097.63 484.857L1098.67 489.781C1098.78 490.31 1098.94 490.813 1099.14 491.277C1099.36 491.741 1099.64 492.134 1099.97 492.463C1100.3 492.785 1100.67 493.011 1101.08 493.133C1101.49 493.269 1101.96 493.275 1102.48 493.159C1103.5 492.901 1104.19 492.289 1104.54 491.329C1104.88 490.362 1104.92 489.227 1104.63 487.925L1103.66 483.361L1097.63 484.857Z" fill="#404040"/>
<path d="M1087.89 507.372L1111.37 501.493L1112.93 509.022L1097.45 519.078L1115.41 520.78L1117 528.232L1093.52 534.111L1092.41 528.902L1110.37 524.416L1091.11 522.766L1090.26 518.717L1106.85 508.12L1088.98 512.581L1087.89 507.372Z" fill="#404040"/>
</svg>
