<svg xmlns="http://www.w3.org/2000/svg" xmlns:xlink="http://www.w3.org/1999/xlink" width="1080" zoomAndPan="magnify" viewBox="0 0 810 809.999993" height="1080" preserveAspectRatio="xMidYMid meet" version="1.0"><defs><filter x="0%" y="0%" width="100%" height="100%" id="838ee74938"><feColorMatrix values="0 0 0 0 1 0 0 0 0 1 0 0 0 0 1 0 0 0 1 0" color-interpolation-filters="sRGB"/></filter><mask id="06187a2f7f"><g filter="url(#838ee74938)"><rect x="-81" width="972" fill="#000000" y="-80.999999" height="971.999992" fill-opacity="0.3"/></g></mask><clipPath id="2723ce1de2"><path d="M 5 4 L 426.988281 4 L 426.988281 284 L 5 284 Z M 5 4 " clip-rule="nonzero"/></clipPath><clipPath id="5c447493de"><path d="M 5.09375 209.464844 C 7.226562 193.097656 8.648438 189.066406 10.429688 185.507812 C 12.089844 182.308594 16.238281 177.683594 16.238281 176.734375 C 16.238281 176.613281 16.121094 176.613281 16.121094 176.496094 C 15.648438 175.664062 12.328125 170.449219 12.207031 170.328125 C 12.207031 170.210938 10.667969 165.824219 9.953125 163.449219 C 9.242188 161.199219 7.703125 156.691406 7.703125 156.691406 C 7.703125 156.574219 7.703125 156.574219 7.703125 156.574219 C 7.703125 156.574219 7.34375 151.828125 7.109375 149.457031 C 6.988281 147.085938 6.515625 142.339844 6.515625 142.222656 C 6.632812 142.105469 7.34375 137.480469 7.703125 135.109375 C 8.175781 132.734375 8.886719 128.109375 8.886719 127.992188 C 9.003906 127.875 10.785156 123.605469 11.734375 121.351562 C 12.683594 119.214844 14.578125 114.828125 14.578125 114.710938 C 14.699219 114.589844 18.613281 109.492188 18.96875 109.015625 C 19.085938 108.898438 19.085938 108.898438 19.085938 108.78125 C 19.203125 108.425781 17.78125 104.15625 17.78125 104.035156 C 17.78125 103.917969 17.78125 99.292969 17.664062 96.921875 C 17.664062 94.429688 17.542969 89.804688 17.542969 89.6875 C 17.542969 89.566406 18.613281 85.0625 19.203125 82.691406 C 19.679688 80.4375 20.746094 75.8125 20.746094 75.691406 C 20.746094 75.691406 22.882812 71.421875 23.949219 69.289062 C 25.015625 67.15625 27.148438 63.003906 27.148438 62.886719 C 27.269531 62.886719 30.351562 59.328125 31.894531 57.429688 C 33.4375 55.652344 36.402344 52.09375 36.519531 51.972656 C 36.636719 51.972656 40.433594 49.246094 42.332031 47.824219 C 44.347656 46.519531 48.140625 43.671875 48.140625 43.671875 C 48.257812 43.671875 52.648438 41.894531 54.78125 41.0625 C 57.035156 40.117188 61.421875 38.335938 61.542969 38.335938 C 61.542969 38.335938 66.285156 37.742188 68.539062 37.386719 C 70.910156 37.03125 75.65625 36.4375 75.65625 36.4375 C 75.773438 36.4375 80.398438 36.914062 82.769531 37.152344 C 85.261719 37.386719 89.886719 37.863281 90.003906 37.863281 C 90.003906 37.863281 94.511719 39.523438 96.644531 40.351562 C 98.898438 41.0625 103.40625 42.722656 103.40625 42.722656 C 103.523438 42.722656 107.4375 45.332031 109.453125 46.757812 C 111.351562 48.0625 114.433594 50.90625 115.265625 50.671875 C 115.621094 50.550781 115.382812 50.078125 115.855469 49.601562 C 118.703125 46.519531 143.132812 26.238281 158.90625 22.328125 C 175.035156 18.292969 203.257812 19.125 211.796875 26.476562 C 217.492188 31.339844 213.101562 47.707031 217.132812 48.773438 C 222.351562 50.195312 232.078125 27.542969 244.292969 20.546875 C 260.300781 11.417969 290.78125 1.21875 308.925781 5.367188 C 324.816406 9.042969 339.402344 24.222656 348.652344 37.625 C 357.785156 51.144531 354.34375 70.949219 364.070312 86.367188 C 376.046875 105.222656 411.507812 119.691406 420.875 139.019531 C 428.347656 154.554688 427.753906 172.226562 424.789062 189.066406 C 421.351562 207.804688 411.507812 231.167969 398.460938 245.636719 C 386.007812 259.390625 367.035156 269.472656 349.484375 274.925781 C 332.40625 280.265625 313.195312 277.65625 294.8125 278.605469 C 276.074219 279.550781 256.980469 281.210938 238.242188 280.738281 C 219.742188 280.144531 200.886719 275.046875 182.980469 275.757812 C 165.785156 276.351562 150.128906 284.769531 132.578125 283.941406 C 112.890625 283.109375 87.871094 273.503906 70.792969 268.285156 C 58.339844 264.371094 46.835938 259.984375 39.007812 256.664062 C 34.382812 254.648438 31.417969 253.34375 27.980469 251.089844 C 24.542969 248.835938 21.339844 246.109375 18.613281 243.144531 C 15.765625 240.179688 13.394531 236.742188 11.378906 233.066406 C 9.363281 229.507812 7.820312 225.59375 6.753906 221.679688 C 5.683594 217.648438 5.09375 209.464844 5.09375 209.464844 " clip-rule="nonzero"/></clipPath><clipPath id="d62aa4bd5d"><rect x="0" width="431" y="0" height="289"/></clipPath><clipPath id="729bd91fc2"><path d="M 261.210938 518.277344 L 475.464844 518.277344 L 475.464844 563.699219 L 261.210938 563.699219 Z M 261.210938 518.277344 " clip-rule="nonzero"/></clipPath><clipPath id="760369527e"><path d="M 335 270.113281 L 386 270.113281 L 386 290 L 335 290 Z M 335 270.113281 " clip-rule="nonzero"/></clipPath></defs><g mask="url(#06187a2f7f)"><g transform="matrix(1, 0, 0, 1, 190, 321)"><g clip-path="url(#d62aa4bd5d)"><g clip-path="url(#2723ce1de2)"><g clip-path="url(#5c447493de)"><path fill="#cdbf7a" d="M 0.347656 0.625 L 429.238281 0.625 L 429.238281 288.800781 L 0.347656 288.800781 Z M 0.347656 0.625 " fill-opacity="1" fill-rule="nonzero"/></g></g></g></g></g><g clip-path="url(#729bd91fc2)"><path fill="#88d039" d="M 463.753906 518.339844 L 272.234375 519.714844 L 271.03125 524.511719 C 271.058594 524.652344 271.074219 524.796875 271.070312 524.941406 C 271.054688 525.382812 270.910156 525.765625 270.652344 526.121094 C 270.640625 526.136719 270.628906 526.152344 270.617188 526.164062 L 264.707031 549.753906 C 264.707031 550.210938 264.714844 550.683594 264.605469 551.128906 C 264.503906 551.550781 264.324219 551.957031 264.070312 552.292969 L 261.210938 563.703125 L 475.464844 563.703125 L 463.753906 518.339844 " fill-opacity="1" fill-rule="nonzero"/></g><path fill="#6fc02d" d="M 472.949219 557.753906 C 469.472656 557.433594 465.972656 557.546875 462.484375 557.546875 C 459.132812 557.546875 455.785156 557.546875 452.433594 557.546875 L 431.917969 557.550781 C 418.238281 557.550781 404.5625 557.550781 390.886719 557.550781 C 363.667969 557.550781 336.453125 557.550781 309.238281 557.550781 C 301.5625 557.550781 293.886719 557.550781 286.207031 557.550781 C 278.539062 557.550781 270.847656 557.390625 263.179688 557.671875 C 262.730469 557.6875 262.730469 558.351562 263.179688 558.367188 C 270.011719 558.621094 276.863281 558.492188 283.695312 558.492188 L 304.210938 558.492188 C 317.890625 558.492188 331.566406 558.492188 345.246094 558.492188 L 426.894531 558.496094 C 434.570312 558.496094 442.246094 558.496094 449.921875 558.496094 C 453.691406 558.496094 457.457031 558.496094 461.226562 558.496094 C 465.128906 558.496094 469.0625 558.644531 472.949219 558.289062 C 473.296875 558.257812 473.296875 557.785156 472.949219 557.753906 " fill-opacity="1" fill-rule="nonzero"/><path fill="#6fc02d" d="M 282.332031 551.230469 L 302.847656 551.230469 C 316.523438 551.230469 330.203125 551.230469 343.878906 551.230469 L 425.527344 551.230469 C 433.203125 551.230469 440.878906 551.230469 448.554688 551.230469 C 452.324219 551.230469 456.09375 551.230469 459.863281 551.230469 C 463.765625 551.230469 467.695312 551.382812 471.582031 551.027344 C 471.929688 550.996094 471.929688 550.519531 471.582031 550.488281 C 468.109375 550.171875 464.605469 550.285156 461.117188 550.285156 C 457.765625 550.285156 454.417969 550.285156 451.066406 550.285156 L 430.550781 550.285156 C 416.875 550.285156 403.195312 550.285156 389.519531 550.285156 C 362.304688 550.285156 335.085938 550.285156 307.871094 550.285156 C 300.195312 550.285156 292.519531 550.285156 284.84375 550.285156 C 278.136719 550.285156 271.410156 550.164062 264.703125 550.324219 C 264.695312 550.59375 264.671875 550.867188 264.605469 551.128906 C 264.601562 551.148438 264.597656 551.167969 264.589844 551.1875 C 270.5 551.324219 276.421875 551.230469 282.332031 551.230469 " fill-opacity="1" fill-rule="nonzero"/><path fill="#6fc02d" d="M 280.964844 544.875 L 301.484375 544.875 C 315.160156 544.875 328.839844 544.875 342.515625 544.875 L 424.164062 544.875 C 431.839844 544.875 439.515625 544.875 447.191406 544.875 C 450.960938 544.875 454.726562 544.875 458.496094 544.875 C 462.398438 544.875 466.332031 545.027344 470.21875 544.671875 C 470.566406 544.640625 470.566406 544.164062 470.21875 544.132812 C 466.742188 543.816406 463.242188 543.929688 459.75 543.929688 C 456.402344 543.929688 453.050781 543.929688 449.703125 543.929688 L 429.1875 543.929688 C 415.507812 543.929688 401.832031 543.929688 388.15625 543.929688 C 360.9375 543.929688 333.722656 543.929688 306.507812 543.929688 C 298.832031 543.929688 291.15625 543.929688 283.480469 543.929688 C 277.53125 543.933594 271.570312 543.835938 265.621094 543.925781 C 265.613281 544.269531 265.53125 544.589844 265.378906 544.871094 C 270.574219 544.949219 275.773438 544.871094 280.964844 544.875 " fill-opacity="1" fill-rule="nonzero"/><path fill="#6fc02d" d="M 267.382812 538.550781 C 271.152344 538.554688 274.925781 538.519531 278.691406 538.519531 L 299.207031 538.519531 C 312.886719 538.519531 326.5625 538.519531 340.242188 538.519531 L 421.886719 538.519531 C 429.566406 538.519531 437.242188 538.519531 444.917969 538.519531 C 448.683594 538.519531 452.453125 538.519531 456.222656 538.519531 C 460.125 538.519531 464.054688 538.671875 467.945312 538.316406 C 468.292969 538.285156 468.292969 537.808594 467.945312 537.777344 C 464.46875 537.460938 460.96875 537.574219 457.476562 537.574219 C 454.128906 537.574219 450.777344 537.574219 447.429688 537.574219 L 426.910156 537.574219 C 413.234375 537.574219 399.558594 537.574219 385.878906 537.574219 C 358.664062 537.574219 331.449219 537.574219 304.230469 537.574219 C 296.554688 537.574219 288.878906 537.574219 281.203125 537.574219 C 276.597656 537.574219 271.980469 537.519531 267.367188 537.535156 C 267.398438 537.632812 267.421875 537.738281 267.4375 537.851562 C 267.472656 538.085938 267.445312 538.324219 267.382812 538.550781 " fill-opacity="1" fill-rule="nonzero"/><path fill="#6fc02d" d="M 276.871094 531.710938 L 297.386719 531.710938 C 311.066406 531.710938 324.742188 531.710938 338.421875 531.710938 L 420.066406 531.710938 C 427.742188 531.710938 435.417969 531.710938 443.097656 531.710938 C 446.863281 531.710938 450.632812 531.710938 454.398438 531.710938 C 458.304688 531.710938 462.238281 531.859375 466.125 531.507812 C 466.46875 531.476562 466.472656 531 466.125 530.96875 C 462.648438 530.652344 459.144531 530.765625 455.65625 530.765625 C 452.308594 530.765625 448.957031 530.765625 445.609375 530.765625 L 425.089844 530.765625 C 411.414062 530.765625 397.738281 530.765625 384.058594 530.765625 C 356.84375 530.765625 329.628906 530.765625 302.414062 530.765625 C 294.734375 530.765625 287.058594 530.765625 279.382812 530.765625 C 276.007812 530.765625 272.628906 530.734375 269.246094 530.726562 C 269.261719 531.0625 269.160156 531.429688 268.996094 531.734375 C 271.621094 531.726562 274.246094 531.710938 276.871094 531.710938 " fill-opacity="1" fill-rule="nonzero"/><path fill="#6fc02d" d="M 271.015625 525.34375 C 272.242188 525.339844 273.46875 525.335938 274.695312 525.335938 L 295.210938 525.335938 C 308.890625 525.335938 322.566406 525.335938 336.242188 525.335938 L 417.890625 525.335938 C 425.566406 525.335938 433.242188 525.335938 440.921875 525.335938 C 444.6875 525.335938 448.457031 525.335938 452.222656 525.335938 C 456.128906 525.335938 460.058594 525.488281 463.945312 525.132812 C 464.292969 525.101562 464.292969 524.625 463.945312 524.59375 C 460.472656 524.277344 456.96875 524.390625 453.480469 524.390625 C 450.132812 524.390625 446.78125 524.390625 443.433594 524.390625 L 422.914062 524.390625 C 409.238281 524.390625 395.558594 524.390625 381.882812 524.390625 C 354.667969 524.390625 327.449219 524.390625 300.234375 524.390625 C 292.558594 524.390625 284.882812 524.390625 277.207031 524.394531 C 275.140625 524.394531 273.070312 524.382812 270.996094 524.371094 C 271.050781 524.558594 271.074219 524.75 271.070312 524.941406 C 271.066406 525.078125 271.046875 525.214844 271.015625 525.34375 " fill-opacity="1" fill-rule="nonzero"/><path fill="#f89f7d" d="M 370.992188 499.527344 C 370.546875 500.585938 369.722656 501.613281 368.585938 501.761719 C 367.746094 501.871094 366.863281 501.226562 366.667969 500.472656 C 366.261719 502.867188 364.625 505.046875 362.398438 506.050781 C 358.695312 503.152344 358.886719 496.609375 362.753906 493.933594 C 360.175781 490.617188 361.164062 485.804688 362.828125 481.949219 C 364.492188 478.09375 366.761719 474.199219 366.378906 470.019531 C 366.261719 468.730469 365.890625 467.46875 365.828125 466.175781 C 365.683594 463.078125 367.503906 459.976562 370.28125 458.585938 C 373.0625 457.203125 376.644531 457.605469 379.042969 459.582031 C 379.910156 460.296875 380.640625 461.203125 381.636719 461.726562 C 384.570312 463.277344 387.957031 460.949219 390.613281 458.957031 C 391.074219 458.609375 391.601562 458.25 392.175781 458.300781 C 392.585938 458.335938 392.960938 458.707031 393.019531 459.082031 L 393.339844 457.800781 C 394.28125 457.550781 395.21875 457.296875 396.140625 456.992188 C 398.191406 461.140625 399.714844 465.550781 400.65625 470.082031 C 389.398438 473.28125 383.746094 485.53125 374.984375 493.28125 C 373.949219 494.199219 372.835938 495.089844 372.175781 496.300781 C 371.628906 497.308594 371.433594 498.46875 370.992188 499.527344 " fill-opacity="1" fill-rule="nonzero"/><path fill="#f89f7d" d="M 361.289062 547.558594 C 360.796875 539.457031 357.160156 531.839844 356.792969 523.730469 C 356.648438 520.546875 357.007812 517.410156 357.585938 514.285156 C 357.550781 514.289062 357.515625 514.289062 357.476562 514.292969 C 359.230469 502.34375 360.984375 490.398438 362.734375 478.449219 C 363.949219 470.167969 365.167969 461.871094 365.582031 453.511719 C 366 445.121094 364.609375 435.011719 357.34375 431.515625 C 350.820312 428.367188 342.691406 432.910156 339.328125 439.597656 C 335.964844 446.285156 336.289062 454.3125 337.476562 461.746094 C 338.324219 467.035156 339.5625 472.300781 340.085938 477.617188 C 339.539062 480.867188 338.8125 484.121094 338.28125 487.351562 C 337.621094 491.347656 337.265625 495.40625 337.230469 499.464844 C 337.367188 500.90625 337.535156 502.347656 337.734375 503.785156 C 338.320312 508.085938 339.125 512.351562 339.871094 516.628906 C 339.929688 516.960938 339.988281 517.289062 340.046875 517.621094 C 340.054688 517.671875 340.0625 517.722656 340.070312 517.773438 C 340.121094 518.058594 340.167969 518.34375 340.21875 518.625 C 340.238281 518.757812 340.261719 518.890625 340.285156 519.019531 C 340.320312 519.226562 340.355469 519.433594 340.386719 519.640625 C 340.445312 519.984375 340.5 520.328125 340.554688 520.671875 C 340.683594 521.464844 340.804688 522.261719 340.921875 523.058594 C 341.25 525.3125 341.523438 527.574219 341.707031 529.839844 C 341.734375 530.003906 341.757812 530.167969 341.785156 530.332031 C 341.785156 530.34375 341.789062 530.355469 341.789062 530.367188 C 341.78125 530.425781 341.773438 530.480469 341.761719 530.539062 C 341.945312 533.023438 342.019531 535.511719 341.9375 538.007812 C 341.890625 539.445312 341.765625 540.871094 341.628906 542.300781 C 341.613281 542.441406 341.601562 542.582031 341.589844 542.726562 C 341.585938 542.753906 341.578125 542.859375 341.570312 542.9375 C 341.566406 542.988281 341.5625 543.03125 341.5625 543.046875 C 341.550781 543.167969 341.542969 543.289062 341.535156 543.410156 C 341.503906 543.898438 341.476562 544.386719 341.460938 544.871094 C 341.4375 545.792969 341.445312 546.714844 341.535156 547.628906 C 341.554688 547.847656 341.578125 548.066406 341.609375 548.285156 C 341.621094 548.363281 341.632812 548.445312 341.644531 548.527344 C 341.726562 548.902344 341.8125 549.28125 341.925781 549.652344 C 342.03125 549.980469 342.15625 550.300781 342.292969 550.621094 C 342.332031 550.695312 342.371094 550.773438 342.414062 550.847656 C 342.503906 551.007812 342.601562 551.167969 342.707031 551.320312 C 342.820312 551.496094 342.941406 551.664062 343.074219 551.828125 C 343.128906 551.886719 343.167969 551.929688 343.195312 551.960938 C 343.375 552.148438 343.5625 552.332031 343.761719 552.5 C 344.636719 552.722656 345.523438 552.910156 346.414062 553.054688 C 348.550781 554.296875 351.25 554.609375 353.574219 553.734375 C 353.847656 553.632812 354.113281 553.515625 354.367188 553.378906 C 354.933594 554.324219 355.753906 554.964844 356.910156 555.050781 C 360.074219 555.292969 361.488281 550.878906 361.289062 547.558594 " fill-opacity="1" fill-rule="nonzero"/><path fill="#f89f7d" d="M 419.710938 438.300781 C 413.402344 433.089844 405.824219 429.691406 398.347656 426.359375 C 391.410156 423.261719 384.171875 420.105469 376.574219 420.320312 C 368.980469 420.539062 360.9375 425.207031 359.46875 432.644531 C 358.941406 435.3125 359.378906 438.304688 361.21875 440.3125 C 362.605469 441.824219 364.59375 442.609375 366.511719 443.347656 C 376.507812 447.195312 386.503906 451.039062 396.496094 454.882812 C 393.089844 456.855469 389.679688 458.828125 386.273438 460.800781 C 382.90625 462.746094 379.421875 464.804688 377.265625 468.03125 C 375.105469 471.261719 374.71875 476.023438 377.460938 478.777344 C 375.226562 478.105469 372.992188 477.433594 370.757812 476.757812 L 377.84375 482.808594 C 390.054688 476.238281 402.269531 469.667969 414.484375 463.097656 C 419.941406 460.164062 426.105469 456.167969 426.410156 449.988281 C 426.640625 445.335938 423.304688 441.273438 419.710938 438.300781 " fill-opacity="1" fill-rule="nonzero"/><path fill="#ee2656" d="M 425.984375 446.960938 C 425.007812 440.054688 418.402344 435.503906 412.164062 432.359375 C 406.875 429.695312 401.40625 427.398438 395.796875 425.492188 C 393.632812 424.757812 391.414062 424.070312 389.125 423.996094 C 386.75 423.917969 384.410156 424.5 382.089844 425.007812 C 368.265625 428.050781 353.921875 428.703125 339.878906 426.925781 C 331.195312 452.152344 334.429688 479.714844 337.769531 506.179688 C 337.890625 507.144531 338.054688 508.191406 338.773438 508.847656 C 339.585938 509.589844 340.820312 509.570312 341.921875 509.503906 C 345.253906 509.308594 348.582031 509.113281 351.914062 508.917969 C 354.351562 508.773438 357.101562 508.476562 358.609375 506.554688 C 359.570312 505.328125 359.792969 503.695312 359.984375 502.148438 C 360.769531 495.738281 361.554688 489.332031 362.339844 482.921875 C 363.457031 477.949219 364.382812 472.933594 365.113281 467.886719 C 365.582031 464.632812 365.996094 461.28125 367.558594 458.386719 C 369.640625 454.539062 373.4375 452.085938 377.648438 450.613281 C 378.128906 450.511719 378.613281 450.414062 379.097656 450.324219 C 384.585938 450.117188 390.113281 451.441406 394.730469 454.433594 C 393.214844 454.9375 392.035156 456.347656 391.8125 457.925781 C 396.726562 460.289062 401.070312 463.824219 404.382812 468.152344 C 409.605469 466.410156 414.945312 464.613281 419.265625 461.203125 C 423.582031 457.796875 426.75 452.402344 425.984375 446.960938 " fill-opacity="1" fill-rule="nonzero"/><path fill="#f68864" d="M 370.519531 390.164062 L 348.703125 390.164062 L 348.703125 369.148438 L 370.519531 369.148438 L 370.519531 390.164062 " fill-opacity="1" fill-rule="nonzero"/><path fill="#8c5e45" d="M 299.152344 328.796875 C 301.097656 314.070312 307.902344 299.355469 320.070312 290.058594 C 332.238281 280.761719 350.175781 278.015625 363.171875 285.605469 L 375.980469 289.089844 C 373.917969 291.382812 371.851562 293.679688 369.789062 295.972656 C 368.21875 297.714844 366.648438 299.460938 364.980469 301.113281 C 356.804688 309.210938 346.496094 314.917969 336.335938 320.515625 C 326.464844 325.953125 316.296875 331.492188 305.132812 333.128906 C 302.925781 333.453125 300.113281 333.304688 299.277344 331.332031 C 298.945312 330.546875 299.039062 329.648438 299.152344 328.796875 " fill-opacity="1" fill-rule="nonzero"/><path fill="#f89f7d" d="M 406.742188 337.507812 C 406.71875 343.289062 411.289062 347.992188 416.945312 348.015625 C 422.601562 348.035156 427.207031 343.367188 427.230469 337.585938 C 427.253906 331.804688 422.683594 327.101562 417.027344 327.078125 C 411.371094 327.058594 406.765625 331.726562 406.742188 337.507812 " fill-opacity="1" fill-rule="nonzero"/><path fill="#ee8963" d="M 405.738281 338.75 C 405.722656 343.292969 409.511719 346.988281 414.203125 347.007812 C 418.890625 347.023438 422.710938 343.359375 422.726562 338.816406 C 422.746094 334.273438 418.957031 330.574219 414.265625 330.558594 C 409.574219 330.539062 405.757812 334.207031 405.738281 338.75 " fill-opacity="1" fill-rule="nonzero"/><path fill="#f89f7d" d="M 312.671875 337.714844 C 312.648438 343.492188 308.042969 348.164062 302.386719 348.140625 C 296.730469 348.121094 292.164062 343.414062 292.183594 337.632812 C 292.207031 331.851562 296.8125 327.183594 302.46875 327.203125 C 308.125 327.226562 312.695312 331.933594 312.671875 337.714844 " fill-opacity="1" fill-rule="nonzero"/><path fill="#ee8963" d="M 313.664062 338.964844 C 313.648438 343.507812 309.832031 347.175781 305.140625 347.15625 C 300.449219 347.136719 296.660156 343.441406 296.675781 338.898438 C 296.695312 334.355469 300.511719 330.6875 305.203125 330.707031 C 309.894531 330.722656 313.683594 334.421875 313.664062 338.964844 " fill-opacity="1" fill-rule="nonzero"/><path fill="#f89f7d" d="M 301.847656 335.5625 C 301.757812 358.292969 327.316406 376.816406 358.933594 376.941406 C 390.546875 377.0625 416.25 358.734375 416.335938 336.007812 C 416.425781 313.277344 390.867188 294.753906 359.253906 294.628906 C 327.636719 294.507812 301.9375 312.835938 301.847656 335.5625 " fill-opacity="1" fill-rule="nonzero"/><path fill="#ffffff" d="M 381.699219 327.226562 C 378.433594 331.503906 379.132812 337.515625 383.257812 340.648438 C 387.382812 343.777344 393.375 342.847656 396.636719 338.566406 C 399.902344 334.289062 399.207031 328.28125 395.082031 325.144531 C 390.953125 322.015625 384.964844 322.945312 381.699219 327.226562 " fill-opacity="1" fill-rule="nonzero"/><path fill="#291a17" d="M 381.238281 328.757812 C 378.476562 332.378906 379.246094 337.601562 382.957031 340.421875 C 386.667969 343.238281 391.917969 342.589844 394.683594 338.96875 C 397.445312 335.34375 396.675781 330.125 392.960938 327.304688 C 389.25 324.488281 384 325.136719 381.238281 328.757812 " fill-opacity="1" fill-rule="nonzero"/><path fill="#ffffff" d="M 386.789062 328.394531 C 386.160156 329.21875 386.320312 330.390625 387.144531 331.019531 C 387.96875 331.644531 389.144531 331.484375 389.773438 330.660156 C 390.402344 329.839844 390.242188 328.664062 389.417969 328.039062 C 388.59375 327.414062 387.414062 327.574219 386.789062 328.394531 " fill-opacity="1" fill-rule="nonzero"/><path fill="#ffffff" d="M 322.398438 325.5 C 318.773438 329.644531 319.074219 335.824219 323.070312 339.300781 C 327.066406 342.78125 333.242188 342.238281 336.867188 338.09375 C 340.492188 333.945312 340.191406 327.765625 336.195312 324.289062 C 332.199219 320.8125 326.023438 321.355469 322.398438 325.5 " fill-opacity="1" fill-rule="nonzero"/><path fill="#291a17" d="M 321.820312 327.035156 C 318.753906 330.542969 319.183594 335.921875 322.777344 339.054688 C 326.375 342.183594 331.777344 341.875 334.84375 338.367188 C 337.910156 334.859375 337.484375 329.480469 333.886719 326.347656 C 330.289062 323.21875 324.890625 323.527344 321.820312 327.035156 " fill-opacity="1" fill-rule="nonzero"/><path fill="#ffffff" d="M 327.511719 327.039062 C 326.8125 327.835938 326.898438 329.046875 327.695312 329.742188 C 328.496094 330.4375 329.707031 330.351562 330.402344 329.558594 C 331.101562 328.757812 331.015625 327.550781 330.21875 326.855469 C 329.421875 326.160156 328.207031 326.242188 327.511719 327.039062 " fill-opacity="1" fill-rule="nonzero"/><path fill="#ee8963" d="M 350.527344 340.820312 C 350.523438 342.398438 353.851562 343.691406 357.964844 343.707031 C 362.078125 343.722656 365.417969 342.457031 365.425781 340.878906 C 365.429688 339.300781 362.101562 338.007812 357.988281 337.992188 C 353.875 337.976562 350.535156 339.242188 350.527344 340.820312 " fill-opacity="1" fill-rule="nonzero"/><path fill="#441a1c" d="M 384.367188 317.339844 C 384.40625 316.757812 384.820312 316.429688 385.371094 316.378906 C 388.507812 316.078125 391.785156 316.703125 394.605469 318.109375 C 395.660156 318.632812 396.660156 319.238281 397.578125 319.96875 C 397.980469 320.289062 397.972656 321.003906 397.617188 321.34375 C 397.222656 321.722656 396.648438 321.738281 396.238281 321.378906 C 396.0625 321.226562 395.847656 321.101562 395.652344 320.972656 C 395.554688 320.90625 395.457031 320.839844 395.359375 320.773438 C 395.359375 320.769531 395.355469 320.769531 395.351562 320.765625 C 395.292969 320.726562 395.230469 320.691406 395.167969 320.652344 C 395 320.550781 394.828125 320.445312 394.660156 320.347656 C 394.566406 320.292969 394.476562 320.242188 394.382812 320.1875 C 394.339844 320.164062 394.292969 320.140625 394.25 320.113281 C 393.566406 319.765625 392.871094 319.449219 392.152344 319.1875 C 391.972656 319.125 391.796875 319.0625 391.613281 319.003906 C 391.523438 318.972656 391.433594 318.945312 391.34375 318.917969 C 391.320312 318.910156 391.308594 318.90625 391.308594 318.902344 C 391.273438 318.894531 391.242188 318.886719 391.207031 318.878906 C 390.832031 318.773438 390.453125 318.679688 390.070312 318.601562 C 389.699219 318.523438 389.328125 318.457031 388.953125 318.40625 C 388.765625 318.378906 388.578125 318.355469 388.390625 318.335938 C 388.347656 318.332031 388.308594 318.328125 388.265625 318.324219 C 388.164062 318.316406 388.0625 318.308594 387.957031 318.300781 C 387.082031 318.246094 386.203125 318.257812 385.332031 318.339844 C 384.816406 318.386719 384.335938 317.828125 384.367188 317.339844 " fill-opacity="1" fill-rule="nonzero"/><path fill="#441a1c" d="M 319.753906 319.5625 C 322.9375 317.433594 326.75 316.46875 330.558594 316.652344 C 331.679688 316.707031 332.839844 316.863281 333.917969 317.183594 C 334.40625 317.328125 334.8125 317.796875 334.675781 318.335938 C 334.546875 318.828125 334.050781 319.21875 333.519531 319.089844 C 332.570312 318.851562 331.617188 318.683594 330.636719 318.609375 C 330.425781 318.59375 330.195312 318.558594 329.984375 318.574219 C 330.179688 318.558594 329.957031 318.574219 329.875 318.574219 C 329.753906 318.574219 329.628906 318.574219 329.507812 318.574219 C 329.070312 318.578125 328.632812 318.597656 328.195312 318.632812 C 327.296875 318.707031 326.402344 318.867188 325.527344 319.089844 C 325.421875 319.117188 325.320312 319.144531 325.21875 319.171875 C 325.183594 319.179688 325.152344 319.191406 325.117188 319.199219 C 325.117188 319.199219 325.113281 319.199219 325.113281 319.203125 C 324.898438 319.269531 324.679688 319.335938 324.464844 319.410156 C 324.0625 319.546875 323.664062 319.699219 323.273438 319.871094 C 323.050781 319.964844 322.832031 320.0625 322.617188 320.167969 C 322.519531 320.210938 322.425781 320.257812 322.328125 320.308594 C 322.28125 320.332031 322.234375 320.355469 322.1875 320.378906 C 322.179688 320.382812 322.175781 320.386719 322.171875 320.386719 C 322.167969 320.390625 322.164062 320.390625 322.164062 320.394531 C 321.746094 320.628906 321.335938 320.863281 320.9375 321.125 C 320.507812 321.40625 319.875 321.386719 319.5625 320.933594 C 319.273438 320.515625 319.300781 319.867188 319.753906 319.5625 " fill-opacity="1" fill-rule="nonzero"/><path fill="#8c5e45" d="M 326.277344 306.78125 C 328.949219 301.378906 335.574219 298.125 341.890625 295.878906 C 353.285156 291.828125 365.386719 289.542969 377.390625 289.175781 L 368.28125 290.859375 C 373.746094 291.273438 378.527344 293.90625 382.101562 297.285156 C 385.679688 300.664062 388.207031 304.769531 390.703125 308.835938 C 384.46875 306.613281 378.613281 303.703125 373.3125 300.199219 C 375.175781 303.542969 377.425781 306.707031 380.027344 309.628906 C 374.582031 311.167969 368.972656 312.097656 363.367188 312.742188 C 358.039062 313.351562 351.304688 312.984375 349.761719 308.71875 C 348.8125 306.097656 350.398438 303.175781 351.941406 300.59375 C 348.484375 304.488281 346.210938 309.109375 345.425781 313.816406 C 340.25 312.746094 337.570312 307.296875 339.46875 302.921875 C 337.027344 306.6875 333.6875 310.398438 329.015625 310.597656 C 327.851562 310.644531 326.570312 310.375 326.03125 309.527344 C 325.519531 308.726562 325.832031 307.679688 326.277344 306.78125 " fill-opacity="1" fill-rule="nonzero"/><g clip-path="url(#760369527e)"><path fill="#8c5e45" d="M 385.824219 278.265625 C 381.277344 277.285156 376.394531 277.933594 372.261719 280.0625 C 375.261719 276.4375 378.785156 273.238281 382.6875 270.601562 C 376.101562 271.292969 369.71875 273.863281 364.492188 277.917969 C 363.222656 278.90625 361.972656 280.144531 361.128906 281.519531 C 354.25 275.640625 344.3125 273.304688 335.597656 275.925781 C 343.761719 278.820312 351.347656 283.335938 357.773438 289.132812 C 358.359375 288.757812 358.941406 288.382812 359.523438 288.011719 L 362.308594 286.730469 L 371.117188 289.054688 C 376.3125 285.878906 381.238281 282.265625 385.824219 278.265625 " fill-opacity="1" fill-rule="nonzero"/></g><path fill="#8c5e45" d="M 413.097656 307.21875 C 408.929688 299.195312 402.351562 292.371094 394.273438 288.277344 C 386.195312 284.191406 376.636719 282.929688 367.871094 285.207031 L 371.695312 294.699219 C 374.925781 294.609375 377.832031 296.511719 380.5 298.335938 C 385.671875 301.878906 390.84375 305.421875 396.019531 308.960938 C 399.902344 311.625 403.828125 314.316406 406.984375 317.808594 C 410.144531 321.300781 412.507812 325.714844 412.640625 330.414062 C 418.375 324.445312 416.914062 314.554688 413.097656 307.21875 " fill-opacity="1" fill-rule="nonzero"/><path fill="#8c5e45" d="M 314.890625 277.6875 C 308.550781 275.042969 301.910156 272.851562 295.046875 272.527344 C 288.183594 272.199219 281.023438 273.902344 275.765625 278.316406 C 282.578125 276.183594 289.886719 275.648438 296.941406 276.761719 C 291.402344 277.859375 285.917969 279.230469 280.515625 280.863281 C 278.558594 281.457031 276.21875 282.605469 276.285156 284.644531 C 276.304688 285.316406 276.613281 285.945312 276.914062 286.554688 C 278.890625 290.527344 280.867188 294.5 282.839844 298.476562 C 283.089844 298.980469 283.367188 299.511719 283.863281 299.777344 C 284.714844 300.242188 285.75 299.71875 286.570312 299.195312 C 291.664062 295.960938 296.695312 292.429688 302.476562 290.699219 C 308.261719 288.96875 315.097656 289.375 319.585938 293.40625 C 320.480469 292.65625 321.066406 291.542969 321.171875 290.378906 L 325.023438 287.625 C 324.652344 282.65625 319.503906 279.605469 314.890625 277.6875 " fill-opacity="1" fill-rule="nonzero"/><path fill="#8c5e45" d="M 410.441406 278.597656 C 417.230469 273.835938 426.390625 272.625 434.191406 275.464844 C 427.871094 270.109375 418.300781 270.148438 410.667969 273.382812 C 403.039062 276.617188 396.90625 282.5 390.953125 288.261719 L 391.871094 291.0625 C 398.660156 289.773438 405.828125 288.507812 412.347656 290.796875 C 417.414062 292.574219 421.671875 296.515625 423.832031 301.421875 C 427.269531 296.726562 430.703125 292.027344 434.136719 287.332031 C 434.480469 286.859375 434.839844 286.34375 434.824219 285.761719 C 434.8125 285.304688 434.570312 284.890625 434.320312 284.507812 C 429.378906 276.980469 418.335938 274.25 410.441406 278.597656 " fill-opacity="1" fill-rule="nonzero"/><path fill="#ee2656" d="M 319.578125 280.5625 L 314.605469 284.421875 C 312.691406 285.90625 312.34375 288.679688 313.828125 290.589844 L 313.988281 290.792969 C 315.472656 292.703125 318.257812 293.046875 320.171875 291.5625 L 325.144531 287.707031 C 327.058594 286.222656 327.40625 283.445312 325.921875 281.539062 L 325.761719 281.335938 C 324.277344 279.425781 321.492188 279.078125 319.578125 280.5625 " fill-opacity="1" fill-rule="nonzero"/><path fill="#fbbf3c" d="M 404.863281 286.246094 L 399.714844 282.617188 C 397.734375 281.222656 394.972656 281.699219 393.574219 283.671875 L 393.425781 283.882812 C 392.027344 285.855469 392.503906 288.613281 394.484375 290.007812 L 399.628906 293.632812 C 401.609375 295.03125 404.375 294.554688 405.773438 292.578125 L 405.921875 292.371094 C 407.320312 290.398438 406.84375 287.640625 404.863281 286.246094 " fill-opacity="1" fill-rule="nonzero"/><path fill="#f68864" d="M 326.855469 343.976562 C 321.085938 343.144531 316.050781 345.027344 315.605469 348.179688 C 315.160156 351.328125 319.472656 354.558594 325.238281 355.386719 C 331.007812 356.214844 336.042969 354.332031 336.488281 351.179688 C 336.9375 348.03125 332.621094 344.800781 326.855469 343.976562 " fill-opacity="1" fill-rule="nonzero"/><path fill="#f68864" d="M 401.386719 348.722656 C 400.640625 345.597656 395.445312 343.960938 389.777344 345.066406 C 384.113281 346.175781 380.121094 349.605469 380.863281 352.734375 C 381.605469 355.863281 386.800781 357.5 392.46875 356.390625 C 398.136719 355.285156 402.128906 351.851562 401.386719 348.722656 " fill-opacity="1" fill-rule="nonzero"/><path fill="#a82920" d="M 370.535156 353.453125 C 368.085938 356.320312 364.617188 358.320312 360.914062 359.03125 C 357.175781 359.746094 353.277344 359.132812 349.925781 357.347656 C 349.011719 356.859375 348.140625 356.292969 347.332031 355.652344 C 346.46875 354.96875 345.730469 354.199219 344.988281 353.394531 C 344.777344 353.167969 344.453125 353.074219 344.183594 353.273438 C 343.945312 353.449219 343.863281 353.832031 344.0625 354.074219 C 346.667969 357.257812 350.515625 359.429688 354.546875 360.191406 C 358.464844 360.933594 362.582031 360.28125 366.105469 358.421875 C 368.144531 357.347656 369.964844 355.917969 371.460938 354.164062 C 371.953125 353.589844 371.019531 352.882812 370.535156 353.453125 " fill-opacity="1" fill-rule="nonzero"/><path fill="#fad53d" d="M 392.359375 418.425781 C 391.074219 415.859375 389.746094 413.3125 388.378906 410.777344 C 388.390625 410.769531 388.40625 410.757812 388.414062 410.746094 C 390.203125 409.117188 390.007812 406.273438 389.4375 403.925781 C 386.957031 393.6875 379.832031 384.664062 370.4375 379.859375 C 370.128906 380.726562 369.824219 381.59375 369.515625 382.460938 C 367.605469 385.699219 363.832031 387.90625 359.484375 387.90625 C 354.265625 387.90625 349.871094 384.726562 348.542969 380.398438 C 346.417969 381.550781 344.425781 382.894531 342.542969 384.347656 C 339.949219 387.238281 338.066406 390.699219 336.84375 394.273438 C 334.871094 400.042969 334.457031 406.140625 334.175781 412.175781 C 333.71875 422 333.566406 431.832031 333.722656 441.660156 C 333.746094 443.160156 333.921875 444.910156 335.308594 445.734375 C 336.078125 446.1875 337.046875 446.238281 337.960938 446.261719 C 358.144531 446.714844 378.363281 438.546875 391.4375 424.65625 C 392.261719 423.78125 393.089844 422.820312 393.246094 421.683594 C 393.402344 420.558594 392.878906 419.457031 392.359375 418.425781 " fill-opacity="1" fill-rule="nonzero"/><path fill="#f89f7d" d="M 359.957031 404.503906 C 359.898438 403.535156 359.6875 402.359375 358.773438 402.035156 C 358.679688 402.003906 358.589844 401.992188 358.503906 402 C 358.96875 400.160156 359.433594 398.324219 359.898438 396.488281 C 360.125 395.601562 360.34375 394.636719 359.957031 393.808594 C 359.441406 392.699219 357.960938 392.296875 356.785156 392.648438 C 355.609375 393 354.699219 393.921875 353.941406 394.890625 C 349.527344 400.523438 348.996094 408.085938 348.980469 415.324219 C 341.789062 415.980469 334.601562 416.632812 327.410156 417.289062 C 331.824219 412.117188 336.238281 406.945312 340.652344 401.773438 C 343.46875 398.476562 346.457031 394.078125 344.574219 390.171875 C 339.070312 389.394531 333.71875 392.175781 329.089844 395.246094 C 321.464844 400.304688 314.539062 406.40625 308.566406 413.328125 C 305.253906 417.164062 302.09375 422.511719 304.46875 426.988281 C 305.769531 429.445312 308.496094 430.886719 311.246094 431.335938 C 313.992188 431.78125 316.796875 431.378906 319.550781 430.976562 C 327.835938 429.769531 336.117188 428.558594 344.402344 427.347656 C 348.03125 426.816406 351.835938 426.214844 354.746094 423.984375 C 360.316406 419.710938 360.394531 411.503906 359.957031 404.503906 " fill-opacity="1" fill-rule="nonzero"/><path fill="#f89f7d" d="M 359.0625 404.605469 C 359.125 403.640625 359.332031 402.464844 360.25 402.140625 C 360.339844 402.105469 360.433594 402.097656 360.519531 402.101562 C 360.054688 400.265625 359.589844 398.429688 359.121094 396.589844 C 358.898438 395.707031 358.683594 394.738281 359.066406 393.914062 C 359.585938 392.800781 361.0625 392.398438 362.238281 392.753906 C 363.414062 393.105469 364.328125 394.027344 365.082031 394.996094 C 369.492188 400.632812 370.023438 408.191406 370.039062 415.429688 C 377.226562 416.089844 384.417969 416.746094 391.605469 417.402344 C 387.191406 412.230469 382.78125 407.054688 378.367188 401.882812 C 375.554688 398.585938 372.566406 394.183594 374.453125 390.28125 C 379.957031 389.503906 385.304688 392.289062 389.933594 395.363281 C 397.554688 400.421875 404.480469 406.523438 410.449219 413.449219 C 413.761719 417.289062 416.921875 422.636719 414.546875 427.113281 C 413.242188 429.570312 410.515625 431.007812 407.765625 431.457031 C 405.019531 431.902344 402.214844 431.5 399.460938 431.097656 C 391.175781 429.882812 382.894531 428.667969 374.609375 427.457031 C 370.980469 426.925781 367.175781 426.320312 364.269531 424.089844 C 358.695312 419.8125 358.621094 411.609375 359.0625 404.605469 " fill-opacity="1" fill-rule="nonzero"/><path fill="#fbbf3c" d="M 346.011719 390.714844 C 346.089844 390.125 346.125 389.527344 346.109375 388.917969 C 346.078125 387.410156 345.609375 385.714844 344.261719 385.023438 L 344.339844 384.878906 C 341.414062 384.074219 338.324219 385.265625 335.636719 386.667969 C 328.730469 390.273438 322.671875 395.472656 318.058594 401.738281 C 317.769531 402.03125 317.480469 402.328125 317.195312 402.625 C 323.851562 404.726562 330.136719 407.980469 335.691406 412.199219 C 338.851562 408.28125 341.558594 404 343.742188 399.46875 C 345.03125 396.789062 346.074219 393.625 346.011719 390.714844 " fill-opacity="1" fill-rule="nonzero"/><path fill="#fbbf3c" d="M 375.832031 383.886719 L 375.613281 383.394531 C 378.589844 382.816406 381.578125 384.238281 384.152344 385.84375 C 390.761719 389.960938 396.40625 395.609375 400.527344 402.207031 C 400.792969 402.519531 401.058594 402.835938 401.316406 403.15625 C 394.523438 404.746094 388.003906 407.511719 382.144531 411.292969 C 379.292969 407.148438 376.921875 402.675781 375.09375 397.988281 C 373.273438 393.332031 372.257812 387.375 375.832031 383.886719 " fill-opacity="1" fill-rule="nonzero"/></svg>